<?xml version="1.0" encoding="utf-8"?>
<!-- Generator: Adobe Illustrator 26.0.2, SVG Export Plug-In . SVG Version: 6.00 Build 0)  -->
<svg version="1.1" id="Calque_1" xmlns="http://www.w3.org/2000/svg" xmlns:xlink="http://www.w3.org/1999/xlink" x="0px" y="0px"
	 viewBox="0 0 595.3 343.4" style="enable-background:new 0 0 595.3 343.4;" xml:space="preserve">
<style type="text/css">
	.st0{opacity:5.000000e-02;fill:none;stroke:#010202;stroke-miterlimit:10;enable-background:new    ;}
	.st1{opacity:5.000000e-02;fill:none;stroke:#010202;stroke-width:1;stroke-miterlimit:9.9996;enable-background:new    ;}
</style>
<circle id="XMLID_14_" class="st0" cx="516.2" cy="183.9" r="7.2"/>
<ellipse id="XMLID_81_" transform="matrix(0.4473 -0.8944 0.8944 0.4473 190.9874 516.304)" class="st1" cx="513.2" cy="103.6" rx="4.1" ry="4.1"/>
<circle id="XMLID_80_" class="st0" cx="379.6" cy="24.2" r="4.7"/>
<circle id="XMLID_82_" class="st0" cx="473.1" cy="120" r="7.2"/>
<circle id="XMLID_83_" class="st0" cx="384.1" cy="310.2" r="13.3"/>
<path id="XMLID_84_" class="st0" d="M456.6,241.2l-6.1,3.2c-0.6,0.3-1.4,0.1-1.8-0.5l-3.2-6.1c-0.3-0.6-0.1-1.4,0.5-1.8l6.1-3.2
	c0.6-0.3,1.4-0.1,1.8,0.5l3.2,6.1C457.5,240.1,457.2,240.9,456.6,241.2z"/>
<path id="XMLID_85_" class="st0" d="M251.7,90.9l-5-1.4c-0.6-0.2-1-0.8-0.8-1.4l1.4-5c0.2-0.6,0.8-1,1.4-0.8l5,1.4
	c0.6,0.2,1,0.8,0.8,1.4l-1.4,5C252.9,90.7,252.3,91.1,251.7,90.9z"/>
<path id="XMLID_86_" class="st0" d="M441.2,62.4L430,71.7c-0.6,0.5-1.4,0.4-1.9-0.2l-9.3-11.3c-0.5-0.6-0.4-1.4,0.2-1.9l11.3-9.3
	c0.6-0.5,1.4-0.4,1.9,0.2l9.3,11.3C441.9,61.1,441.8,61.9,441.2,62.4z"/>
<path id="XMLID_87_" class="st0" d="M551,225.1h-1.6c-0.7,0-1.3-0.6-1.3-1.3v-1.6c0-0.7,0.6-1.3,1.3-1.3h1.6c0.7,0,1.3,0.6,1.3,1.3
	v1.6C552.4,224.5,551.8,225.1,551,225.1z"/>
<path id="XMLID_88_" class="st0" d="M579.2,75l-12,2.6c-0.7,0.2-1.4-0.3-1.6-1l-2.6-12c-0.2-0.7,0.3-1.4,1-1.6l12-2.6
	c0.7-0.2,1.4,0.3,1.6,1l2.6,12C580.3,74.2,579.9,74.9,579.2,75z"/>
</svg>
