<?xml version="1.0" encoding="utf-8"?>
<!-- Generator: Adobe Illustrator 26.0.2, SVG Export Plug-In . SVG Version: 6.00 Build 0)  -->
<svg version="1.1" id="Layer_1" xmlns="http://www.w3.org/2000/svg" xmlns:xlink="http://www.w3.org/1999/xlink" x="0px" y="0px"
	 viewBox="0 0 300 300" style="enable-background:new 0 0 300 300;" xml:space="preserve">
<style type="text/css">
	.st0{fill:#051918;}
	.st1{fill:#282D2B;}
	.st2{fill:#FFFFFD;}
	.st3{fill:#B9BFB7;}
	.st4{fill:#3A433F;}
	.st5{fill:#6E766E;}
	.st6{fill:#051A19;}
	.st7{fill:#504F51;}
	.st8{fill:#989998;}
	.st9{fill:#EF1D50;}
	.st10{fill:#282C2B;}
	.st11{fill:#C62249;}
	.st12{fill:#BC7015;}
	.st13{fill:#A52046;}
	.st14{fill:#4F4F51;}
	.st15{fill:#FFF0D0;stroke:#231F20;stroke-width:0.6831;stroke-miterlimit:10;}
	.st16{fill:#A6A9AA;}
	.st17{fill:#A7A8AA;}
	.st18{fill:#AD2552;}
	.st19{fill:#F2F2F2;}
	.st20{fill:#F29A22;}
	.st21{fill:#484749;}
	.st22{fill:#444344;}
	.st23{fill:#FFFFFF;}
	.st24{opacity:0.53;}
	.st25{fill:#3A3A3A;}
	.st26{fill:#E7E7E7;}
	.st27{fill:#191210;}
	.st28{fill:#494949;}
	.st29{fill:#E5244A;}
	.st30{fill:#2D000D;}
	.st31{fill:none;stroke:#F25E2E;stroke-width:0.6415;stroke-miterlimit:10;}
	.st32{fill:#C73933;}
	.st33{fill:#FF8E6C;}
	.st34{fill:#5E1212;}
	.st35{fill:#BA2F2F;}
	.st36{fill:#F73C4F;}
	.st37{fill:#F25E2E;}
	.st38{fill:#490F0F;}
	.st39{fill:#E8D6D6;}
	.st40{opacity:0.39;fill:#494949;}
	.st41{fill:#3C041C;}
</style>
<g>
	<path class="st0" d="M56.8,251.7c0.4,0.1,0.8,0.2,1.1,0.2c-1.9-1.4-2.9-3.9-2.1-6.3l9.6-29c0.5-1.5,1.5-2.6,2.8-3.2
		c0.9-0.5,2-0.7,3.1-0.6c-0.4-0.3-0.9-0.6-1.5-0.7c-1.5-0.5-3-0.3-4.2,0.3c-1.3,0.6-2.3,1.8-2.8,3.2l-9.6,29
		C52.3,247.6,53.9,250.7,56.8,251.7z"/>
	<path class="st1" d="M57.9,251.9c2.5,0.3,5-1.2,5.9-3.8l9.6-29c0.8-2.4-0.1-4.9-2.1-6.3c-1.1-0.1-2.2,0.1-3.1,0.6
		c-1.3,0.6-2.3,1.8-2.8,3.2l-9.6,29C55.1,248,56,250.6,57.9,251.9z"/>
	<g>
		<path class="st0" d="M180.8,259.5c0.8,0.1,1.6,0.1,2.5,0.1c12.9-0.2,23.5-13.3,23.7-29.3c0.1-7.9-2.4-15-6.5-20.2
			c-4.2-5.3-10-8.5-16.6-8.3c-12.9,0.2-23.5,13.3-23.7,29.3C160.1,246,169.1,258.2,180.8,259.5z M166.4,230.4
			c0.1-12.3,8-22.4,17.7-22.6c9.6-0.2,17.4,9.7,17.2,22c-0.1,12.3-8,22.4-17.7,22.6C174,252.6,166.3,242.7,166.4,230.4z"/>
		<path class="st2" d="M183.7,252.4c9.6-0.2,17.5-10.3,17.7-22.6c0.1-12.3-7.6-22.2-17.2-22c-9.6,0.2-17.5,10.3-17.7,22.6
			C166.3,242.7,174,252.6,183.7,252.4z M168.3,230.5c0-2.7,0.4-5.3,1.2-7.7c0.8-2.6,2.1-5,3.7-7.1c1.7-2.2,3.7-3.8,5.8-4.8
			c1.7-0.8,3.4-1.2,5.2-1.3c3.4-0.1,6.5,1.3,9.2,3.9c3.9,3.8,6.1,9.7,6.1,16.2c-0.1,5.6-1.8,10.8-4.9,14.8c-3,3.8-6.9,6-11,6.1
			c-3.4,0.1-6.5-1.3-9.2-3.9c-0.7-0.7-1.3-1.4-1.9-2.2c-1.3-1.8-2.4-4-3.1-6.3c-0.1-0.2-0.1-0.5-0.2-0.7
			C168.5,235.2,168.3,232.9,168.3,230.5z"/>
		<path class="st1" d="M178.8,259.6c0.7,0,1.4-0.1,2.1-0.1c-11.7-1.3-20.8-13.4-20.6-28.4c0.2-16,10.8-29.1,23.7-29.3
			c6.5-0.1,12.4,3.1,16.6,8.3c-4.8-6.7-12.2-10.9-20.5-10.8c-14.8,0.2-27,13.9-27.3,30.6C152.3,246.6,164,259.9,178.8,259.6z"/>
		<path class="st3" d="M169.3,238.1c1,3.4,2.7,6.3,5,8.5c2.7,2.6,5.8,3.9,9.2,3.9c4.1-0.1,8-2.2,11-6.1c3.1-4,4.8-9.2,4.9-14.8
			c0.1-6.5-2.1-12.3-6.1-16.2c-2.7-2.6-5.8-3.9-9.2-3.9c-1.8,0-3.6,0.5-5.2,1.3c0.6-0.1,1.2-0.2,1.7-0.2c2.7,0,5.3,1.2,7.5,3.5
			c3.2,3.5,5,8.8,5,14.7c0,5.1-1.4,9.8-3.9,13.4c-2.4,3.5-5.6,5.4-8.9,5.5c-2.7,0-5.3-1.2-7.5-3.5
			C171.4,242.6,170.2,240.5,169.3,238.1z"/>
		<path class="st4" d="M169.1,237.4c0.1,0.2,0.1,0.5,0.2,0.7c0.7,2.3,1.7,4.5,3.1,6.3c1.3-1,5.6-4.3,8.5-7.4l1.8,0.1l0.8,0
			c0,0,1.1,7.7,0.8,10.5c0,0,3.7-0.1,6.2-2.4c0,0-0.7-7.6-1.5-9.7l1.3-2.6l6.9,0.1c0,0,0.9-2.5,0.3-7.3l-6.7,0.6l-0.3-0.5l-1.3-1.9
			c0,0,2-6.4,1.7-10.2c0,0-2.9-2.2-6-2.9c0,0,0.8,6.9-0.3,10.7l-2.4,1.4l-0.7-0.6l-6.9-5.9l-1.4-1c-1.6,2.1-2.9,4.5-3.7,7.1
			c1.5,0.7,6.5,3.2,9.4,5.6l-0.4,3.3L169.1,237.4z"/>
		<path class="st5" d="M168.9,236.4l0.2,1l9.3-5.7l0.4-3.3c-2.8-2.4-7.8-4.8-9.4-5.6l-0.2,0.5c0,0,6.3,2.7,7.9,4.5
			c0,0-0.4,1.7-0.3,3L168.9,236.4z"/>
		<path class="st5" d="M183.1,246.8l1.2,0.9c0.3-2.8-0.8-10.5-0.8-10.5l-0.8,0C183.3,241.2,183.1,246.8,183.1,246.8z"/>
		<path class="st5" d="M190.5,226.1l0.3,0.5l6.7-0.6c0,0-0.8-0.3-1.7-0.7L190.5,226.1z"/>
		<path class="st0" d="M182.9,230c0.1,1.3,1.2,2.3,2.5,2.3c1.3,0,2.3-1.1,2.2-2.4c-0.1-1.3-1.2-2.3-2.5-2.3
			C183.8,227.7,182.8,228.7,182.9,230z"/>
		<path class="st0" d="M185.2,235.1c0,0.4,0.4,0.8,0.8,0.7s0.7-0.4,0.7-0.8c0-0.4-0.4-0.8-0.8-0.7S185.2,234.7,185.2,235.1z"/>
		<path class="st0" d="M188.9,229.9c0.1,0.4,0.5,0.7,0.9,0.7c0.4-0.1,0.7-0.4,0.6-0.9s-0.5-0.7-0.9-0.7
			C189.1,229.1,188.8,229.4,188.9,229.9z"/>
		<path class="st0" d="M180.1,233.3c0.1,0.4,0.5,0.7,0.9,0.7s0.7-0.4,0.6-0.9c-0.1-0.4-0.5-0.7-0.9-0.7
			C180.3,232.5,180.1,232.8,180.1,233.3z"/>
		<path class="st0" d="M180.4,226.5c0.1,0.4,0.5,0.7,0.9,0.7c0.4-0.1,0.7-0.4,0.6-0.9c-0.1-0.4-0.5-0.7-0.9-0.7
			C180.6,225.7,180.3,226.1,180.4,226.5z"/>
		<path class="st5" d="M181.5,222.5l0.7,0.6l2.4-1.4c1.2-3.8,0.3-10.7,0.3-10.7l-1.4,0.1c0,0,1,7.4-0.6,10.6L181.5,222.5z"/>
		<path class="st0" d="M185.8,224.1c-0.2,0.4-0.1,0.8,0.3,1.1c0.4,0.2,0.8,0.1,1.1-0.2c0.2-0.4,0.1-0.8-0.3-1.1
			C186.5,223.6,186,223.7,185.8,224.1z"/>
	</g>
	<polygon class="st6" points="155.6,238.1 174.3,226.1 175.1,243.1 165.7,245.4 165.6,245.4 	"/>
	<path class="st3" d="M162,242.7c0,1,0.6,1.8,1.3,1.8l0.1,0c0.8,0,1.3-0.9,1.3-1.9s-0.6-1.8-1.4-1.8
		C162.6,240.8,162,241.6,162,242.7z"/>
	<path class="st3" d="M167.5,228.6c0.1,4.2,2.8,7.2,6.1,6.8c0.2,0,0.5-0.1,0.7-0.1c3-0.8,5.2-4.3,5.1-8.2c-0.1-4.2-2.8-7.2-6.1-6.8
		c-0.1,0-0.1,0-0.2,0C169.9,220.8,167.4,224.5,167.5,228.6z"/>
	<path class="st7" d="M172.5,227.7c0,2.2,1.5,3.9,3.2,3.6c0.1,0,0.2,0,0.4-0.1c1.6-0.4,2.8-2.3,2.7-4.4c0-2.2-1.5-3.9-3.2-3.6
		c0,0-0.1,0-0.1,0C173.8,223.6,172.5,225.5,172.5,227.7z"/>
	<path class="st8" d="M171.5,227.9c0,2.3,1.6,4,3.5,3.8c0.4,0,0.8-0.2,1.1-0.4c-0.1,0-0.2,0.1-0.4,0.1c-1.8,0.2-3.2-1.4-3.2-3.6
		c0-2.2,1.3-4.1,3-4.4c-0.2,0-0.4,0-0.7,0C173,223.5,171.5,225.6,171.5,227.9z"/>
	<path class="st6" d="M200.8,214.2l2.8,4.3c4.2,0.7,6.9,0.6,9.1,1.3c0.7,0.2,1.4-0.3,1.4-0.9c0-0.2,0-0.4-0.1-0.5l-3.2-8.8
		C208.5,210.9,205.2,212.6,200.8,214.2z"/>
	<path class="st7" d="M214.1,218.3c0.1,0.2,0.1,0.4,0.1,0.5c0.4-0.7-1.6-6.9-2.5-9.7c-0.2,0.1-0.5,0.3-0.8,0.4L214.1,218.3z"/>
	<path class="st9" d="M121.4,212.8c6.1,2.2,14.6,2.2,21.6,1.7c1.9-21.2-15.1-22.8-15.1-22.8l-3.4,0.1
		C124.5,191.8,125.4,206.2,121.4,212.8z"/>
	<path class="st10" d="M118.7,188.9c0.3,1.2,1.4,2.1,2.7,2.2l4.4,0.3l5.4,0.3c10.3-1.2,21.9-6.3,31.2-10.8
		c5.5-2.7,10.3-5.1,13.5-6.4c5.3-2.1,11.9-1.7,16.2-1.1c1.3,0.2,2.5,0.4,3.2,0.5c0.7,0.1,1.3-0.3,1.5-1c0.5-2.2,0.8-4,0.8-5.6
		c0-0.9-0.1-1.7-0.2-2.4c-0.1-0.5-0.2-0.9-0.3-1.4c0-0.1,0-0.2-0.1-0.2c-0.2-0.5-0.4-0.9-0.8-1.3c0,0,0,0,0,0
		c-0.4-0.4-0.8-0.7-1.3-0.9c-0.7-0.3-1.5-0.4-2.3-0.1c-3.6,1-10.9,2.8-22.6,5.2c-17.6,3.6-33.1-0.2-33.1-0.2l-7.2-0.4
		c0,0-7.5,5.6-10.8,10.5C116.7,179.8,117.9,185.8,118.7,188.9z"/>
	<path class="st11" d="M124.5,191.8l3.4-0.1c0,0,2.7,0.2,5.8,1.9c4.7,2.5,10.4,8.1,9.3,20.9c6.8-0.5,12.2-1.5,12.2-1.5l6.2-1.5
		c0,0-1.6-2.9-4.1-13.3c-1.3-5.4,1-10.8,3.5-14.7c0,0,0,0,0,0c0.6-0.9,1.2-1.8,1.8-2.5c-9.4,4.5-21,9.6-31.2,10.8l-5.4-0.3
		L124.5,191.8z"/>
	<path class="st9" d="M157.2,198.1c2.6,10.4,4.1,13.3,4.1,13.3l17.6-2.2l-4.2-11.8c-0.9-2.6-0.6-5.5,0.7-7.8c2.3-4,6.9-9.1,15.4-9.2
		c13.6-0.1,21.6,19.2,21.7,19.5c-3.6-14.3-14.8-22.8-19-25.5c-1-0.6-1.5-1-1.5-1c-4.3-0.6-10.8-0.9-16.2,1.1
		c-3.2,1.3-8,3.7-13.5,6.4c-2.4,3.1-5.4,7.9-5.6,13.1C156.8,195.4,156.9,196.8,157.2,198.1z"/>
	<path class="st8" d="M153.4,242.3c0,1,0.6,1.8,1.4,1.8l8.5,0.3c-0.7-0.1-1.3-0.9-1.3-1.8c0-1,0.6-1.9,1.3-1.9l-8.5-0.3l-0.1,0
		C154,240.5,153.4,241.3,153.4,242.3z"/>
	<path class="st11" d="M174.8,197.4l4.2,11.8l0,0l33.7-9.4c0,0,0,0,0,0c-0.1-0.3-8.1-19.5-21.7-19.5c-8.5,0.1-13.1,5.2-15.4,9.2
		C174.1,192,173.9,194.9,174.8,197.4z"/>
	<path class="st6" d="M129.9,165.8l7.2,0.4c0,0,15.4,3.8,33.1,0.2c11.7-2.4,19-4.2,22.6-5.2c0.8-0.2,1.6-0.1,2.3,0.1
		c0.5,0.2,0.9,0.5,1.3,0.9c0,0-0.2-0.5-0.5-1.1c-0.4-0.8-1.2-1.6-2.1-1.8c-1.3-0.2-19.5-0.2-28.8-0.3c-3.3,0-6.5,0.8-9.3,2.4
		c-2.8,1.6-6.5,3.4-9,3.7C142,165.6,132.7,162.6,129.9,165.8z"/>
	<path class="st9" d="M161.3,211.5c2.5,7.3,9.7,10.2,9.7,10.2l11.7-2.3c7.2-1.4,13.2-3.2,18-5c4.4-1.7,7.8-3.4,10.1-4.7
		c0.3-0.2,0.5-0.3,0.8-0.4c0.5-0.3,0.9-0.5,1.3-0.8c1.2-0.8,1.9-2.2,1.6-3.7c-0.7-3.3-1.9-4.8-1.9-4.8c0,0,0,0,0,0l-33.7,9.4l0,0
		L161.3,211.5z"/>
	<g>
		<path class="st12" d="M187.5,193.6c0,0.2,0.2,0.3,0.3,0.4c0.2,0.1,0.3,0.1,0.5,0.1c3.4-0.8,6.7-1.7,9.9-2.9
			c0.4-0.1,0.5-0.5,0.4-0.9c-0.1-0.2-0.2-0.3-0.3-0.4c-0.2-0.1-0.3-0.1-0.5,0c-3.1,1.1-6.4,2-9.7,2.8
			C187.7,192.8,187.5,193.2,187.5,193.6z"/>
		<path class="st12" d="M187.3,196c0,0.2,0.2,0.3,0.3,0.4c0.2,0.1,0.3,0.1,0.5,0.1c4-0.9,7.9-2,11.7-3.4c0.4-0.1,0.5-0.5,0.4-0.9
			c-0.1-0.2-0.2-0.3-0.4-0.4c-0.2-0.1-0.3-0.1-0.5,0c-3.7,1.3-7.6,2.5-11.6,3.4C187.4,195.3,187.2,195.6,187.3,196z"/>
		<path class="st12" d="M187.2,198.2c0,0.2,0.2,0.3,0.3,0.4c0.2,0.1,0.4,0.1,0.6,0.1c4.6-1,9.1-2.3,13.3-3.9
			c0.4-0.1,0.5-0.5,0.4-0.9c-0.1-0.2-0.2-0.3-0.4-0.4c-0.2-0.1-0.4-0.1-0.5,0c-4.2,1.6-8.6,2.9-13.2,3.9
			C187.4,197.5,187.1,197.8,187.2,198.2z"/>
		<path class="st12" d="M187.8,200.3c0,0.2,0.2,0.3,0.3,0.4c0.2,0.1,0.4,0.1,0.6,0.1c4.7-1,9.2-2.4,13.6-4c0.4-0.1,0.5-0.5,0.4-0.9
			c-0.1-0.2-0.2-0.3-0.4-0.4c-0.2-0.1-0.4-0.1-0.5,0c-4.3,1.6-8.8,2.9-13.4,3.9C187.9,199.5,187.7,199.9,187.8,200.3z"/>
		<path class="st12" d="M189,202.2c0.1,0.2,0.2,0.3,0.3,0.4c0.2,0.1,0.4,0.1,0.6,0.1c4.3-1,8.4-2.2,12.4-3.7
			c0.4-0.1,0.6-0.5,0.4-0.9c-0.1-0.2-0.2-0.3-0.4-0.4c-0.2-0.1-0.4-0.1-0.6,0c-3.9,1.4-8,2.6-12.2,3.6
			C189.1,201.5,188.9,201.8,189,202.2z"/>
		<path class="st12" d="M190.4,203.9c0.1,0.2,0.2,0.3,0.4,0.4c0.2,0.1,0.4,0.1,0.6,0.1c3.7-0.9,7.3-2,10.8-3.2
			c0.4-0.1,0.6-0.5,0.4-0.9c-0.1-0.2-0.2-0.3-0.4-0.4c-0.2-0.1-0.4-0.1-0.6,0c-3.5,1.2-7,2.3-10.7,3.2
			C190.6,203.2,190.3,203.6,190.4,203.9z"/>
	</g>
	<path class="st7" d="M117.5,233.8c0.4,0.4,0.8,0.8,1.2,1.2c3,2.5,7,3.5,10.8,2.8l41.7-7.3l-3.3-0.8l-2.8-0.6L117.5,233.8z"/>
	<path class="st7" d="M111.4,221.5l1.9,4.5c3.3,0,8.6-0.2,14.8-0.9c8.4-0.9,13.4-8,14.9-10.6c-7,0.5-15.5,0.5-21.6-1.7l-3.9,6.6
		c-1,1.3-2.6,2-4.2,2.1L111.4,221.5z"/>
	<path class="st6" d="M113.3,226l1.6,3.9c0.6,1.5,1.5,2.8,2.5,3.9l47.6-4.7l-0.1-5.9l-9.8-10.2c0,0-5.3,1-12.2,1.5
		c-1.6,2.6-6.5,9.7-14.9,10.6C121.9,225.8,116.6,226,113.3,226z"/>
	<path class="st11" d="M84.5,238.1c2.2,2.9,5.7,4.8,8.9,6c3.6,1.3,7.5,2,11.4,2c10.6-0.1,44.7-0.4,51.6-2.4c0.7-0.2,1.3-0.4,1.9-0.7
		c2.1-0.9,4-2.3,5.7-3.9c4.3-3.9,7.1-8.6,7.1-8.6l-41.7,7.3c-3.8,0.7-7.8-0.3-10.8-2.8c-0.4-0.3-0.8-0.7-1.2-1.2
		c-1-1-1.9-2.3-2.5-3.9c0,0-3.4,2.4-16.6,2.4c0,0,0.6,9.6-7.9,8.6C88.8,240.7,86.8,239.8,84.5,238.1z"/>
	<path class="st13" d="M57.7,193.8c4.5,21.7,17.4,37.5,26.8,44.3c2.3,1.7,4.3,2.6,6,2.8c8.5,1,7.9-8.6,7.9-8.6
		c-0.1-4.8-0.4-15.1-2.4-22c-1.1-3.8-5.3-12-14.8-17.4C71.7,187.7,57.7,193.8,57.7,193.8z"/>
	<path class="st14" d="M68.5,131.4L68.5,131.4L68.5,131.4l3,0.2l6.2,0.4l3.8,0.2c0-0.1,0-0.2,0-0.4c0-0.6,0-1.2,0-1.7
		c0-0.7,0.1-1.2,0.1-1.2c0.1-0.5,0.2-0.9,0.3-1.4l-12.6-0.4c-0.4-0.1-0.8,0.5-1,1.8C68,130.3,68.1,131.4,68.5,131.4z"/>
	<polyline class="st15" points="70.8,134.3 70.8,134.3 70.7,134.3 	"/>
	<path class="st16" d="M77,117C77.1,117,77.1,117,77,117c0.2,0,0.3,0,0.4,0c2.9,0,5.2-3.5,5.1-7.7c-0.1-3.6-1.8-6.6-4.2-7.3
		c-0.4-0.1-0.8-0.2-1.2-0.2c-0.1,0-0.3,0-0.4,0c0.3,0,0.5,0.1,0.8,0.2c2.1,0.8,3.8,3.7,3.8,7.3C81.4,113.3,79.5,116.6,77,117z"/>
	<path class="st7" d="M71.7,109.5c0.1,4,2.1,7.3,4.7,7.5c0.1,0,0.2,0,0.3,0c0.1,0,0.2,0,0.4,0c0,0,0,0,0,0c2.5-0.3,4.4-3.6,4.3-7.6
		c-0.1-3.6-1.7-6.6-3.8-7.3c-0.2-0.1-0.5-0.1-0.8-0.2c-0.1,0-0.2,0-0.4,0C73.7,101.9,71.6,105.3,71.7,109.5z"/>
	<g>
		<path class="st17" d="M87,124.9c0.2,0,0.3-0.1,0.4-0.2c0.3-0.2,0.3-0.6,0-0.9l-10.8-12c-0.2-0.3-0.6-0.3-0.9,0
			c-0.3,0.2-0.3,0.6,0,0.9l10.8,12C86.7,124.8,86.8,124.9,87,124.9z"/>
	</g>
	<path class="st1" d="M65.6,218.9l10.5,13.5l16.9,2.8c0,0-7.5-16.6-15.6-16.4L65.6,218.9z"/>
	<g>
		<path class="st0" d="M55.9,272.3c0.8,0.1,1.7,0.1,2.6,0.1c13.6-0.2,25.1-13.1,25.8-28.7C84.6,236,82.2,229,78,224
			c-4.2-5.1-10.3-8.3-17.2-8.2c-13.6,0.2-25.1,13.1-25.8,28.7C34.5,259.2,43.6,271,55.9,272.3z M41.6,243.8
			c0.5-12.1,9.1-22,19.2-22.2c10.1-0.2,18,9.5,17.5,21.6c-0.5,12.1-9.1,22-19.2,22.2C49,265.5,41.1,255.9,41.6,243.8z"/>
		<path class="st2" d="M59.1,265.4c10.1-0.2,18.7-10.1,19.2-22.2c0.5-12.1-7.4-21.7-17.5-21.6c-10.1,0.2-18.7,10.1-19.2,22.2
			C41.1,255.9,49,265.5,59.1,265.4z M43.6,243.9c0.1-2.6,0.6-5.2,1.5-7.6c0.9-2.6,2.3-4.9,4.1-6.9c1.8-2.1,4-3.7,6.3-4.7
			c1.8-0.8,3.6-1.2,5.5-1.2c3.5-0.1,6.8,1.3,9.5,3.8c4,3.7,6.1,9.5,5.9,15.8c-0.2,5.5-2.2,10.6-5.6,14.5c-3.3,3.8-7.4,5.9-11.8,6
			c-3.5,0.1-6.8-1.3-9.5-3.8c-0.7-0.7-1.4-1.4-2-2.2c-1.4-1.8-2.4-3.9-3.1-6.2c-0.1-0.2-0.1-0.5-0.2-0.7
			C43.7,248.6,43.5,246.3,43.6,243.9z"/>
		<path class="st1" d="M53.7,272.5c0.7,0,1.5-0.1,2.2-0.1c-12.3-1.3-21.4-13.2-20.8-27.8c0.7-15.6,12.2-28.5,25.8-28.7
			c6.9-0.1,12.9,3,17.2,8.2c-4.8-6.6-12.5-10.7-21.3-10.6c-15.5,0.3-28.8,13.7-29.6,30C26.3,259.7,38.2,272.7,53.7,272.5z"/>
		<path class="st3" d="M44.4,251.4c1,3.3,2.7,6.2,5,8.4c2.7,2.5,6,3.9,9.5,3.8c4.3-0.1,8.5-2.2,11.8-6c3.4-3.9,5.4-9,5.6-14.5
			c0.2-6.3-1.9-12.1-5.9-15.8c-2.7-2.5-6-3.9-9.5-3.8c-1.9,0-3.7,0.5-5.5,1.2c0.6-0.1,1.2-0.2,1.8-0.2c2.9,0,5.6,1.1,7.8,3.5
			c3.3,3.4,5.1,8.6,4.9,14.4c-0.1,5-1.7,9.6-4.5,13.1c-2.6,3.4-6,5.3-9.6,5.4c-2.9,0-5.6-1.1-7.8-3.5
			C46.5,255.8,45.3,253.7,44.4,251.4z"/>
		<path class="st4" d="M44.3,250.7c0.1,0.2,0.1,0.5,0.2,0.7c0.7,2.3,1.7,4.4,3.1,6.2c1.4-1,6-4.2,9.1-7.2l1.9,0.1l0.9,0
			c0,0,0.9,7.5,0.5,10.3c0,0,3.9-0.1,6.6-2.3c0,0-0.5-7.4-1.3-9.5l1.4-2.6l7.3,0.1c0,0,1-2.5,0.5-7.1l-7,0.6l-0.3-0.5l-1.3-1.9
			c0,0,2.3-6.3,2.1-10c0,0-3-2.2-6.2-2.8c0,0,0.7,6.8-0.7,10.5l-2.6,1.4l-0.7-0.6l-7.1-5.7l-1.4-0.9c-1.8,2-3.1,4.4-4.1,6.9
			c1.6,0.7,6.8,3.1,9.7,5.4l-0.6,3.3L44.3,250.7z"/>
		<path class="st5" d="M44,249.7l0.2,1l9.9-5.6l0.6-3.3c-2.9-2.3-8.1-4.7-9.7-5.4l-0.2,0.5c0,0,6.5,2.7,8.1,4.4c0,0-0.4,1.6-0.4,2.9
			L44,249.7z"/>
		<path class="st5" d="M58.7,259.9l1.2,0.9c0.4-2.8-0.5-10.3-0.5-10.3l-0.9,0C59.1,254.4,58.7,259.9,58.7,259.9z"/>
		<path class="st5" d="M67.1,239.5l0.3,0.5l7-0.6c0,0-0.8-0.3-1.8-0.7L67.1,239.5z"/>
		<path class="st0" d="M58.9,243.5c0.1,1.3,1.2,2.3,2.6,2.2c1.4,0,2.4-1.1,2.4-2.3c-0.1-1.3-1.2-2.3-2.6-2.2
			C59.9,241.1,58.9,242.2,58.9,243.5z"/>
		<path class="st0" d="M61.3,248.4c0,0.4,0.4,0.7,0.8,0.7c0.4,0,0.8-0.3,0.8-0.8c0-0.4-0.4-0.7-0.8-0.7
			C61.6,247.6,61.2,248,61.3,248.4z"/>
		<path class="st0" d="M65.2,243.3c0.1,0.4,0.5,0.7,0.9,0.6c0.4-0.1,0.7-0.4,0.7-0.8c-0.1-0.4-0.5-0.7-0.9-0.6
			C65.5,242.5,65.2,242.9,65.2,243.3z"/>
		<path class="st0" d="M55.9,246.6c0.1,0.4,0.5,0.7,0.9,0.6c0.4-0.1,0.7-0.4,0.7-0.8c-0.1-0.4-0.5-0.7-0.9-0.6
			C56.2,245.8,55.9,246.2,55.9,246.6z"/>
		<path class="st0" d="M56.4,240c0.1,0.4,0.5,0.7,0.9,0.6c0.4-0.1,0.7-0.4,0.7-0.8c-0.1-0.4-0.5-0.7-0.9-0.6
			C56.7,239.2,56.3,239.6,56.4,240z"/>
		<path class="st5" d="M57.7,236.1l0.7,0.6l2.6-1.4c1.3-3.7,0.7-10.5,0.7-10.5l-1.5,0.1c0,0,0.8,7.3-0.9,10.4L57.7,236.1z"/>
		<path class="st0" d="M62.1,237.6c-0.2,0.3-0.1,0.8,0.3,1c0.4,0.2,0.9,0.1,1.1-0.2c0.2-0.3,0.1-0.8-0.3-1
			C62.9,237.2,62.4,237.3,62.1,237.6z"/>
	</g>
	<line class="st15" x1="85.8" y1="202.8" x2="85.8" y2="202.8"/>
	<path class="st9" d="M57.7,193.8c0,0,0.7-0.1,2-0.2c4.2-0.4,12.2,0,19.7,3.8c8,4.1,12.2,10.1,13.9,14.9c2.4,6.8,5,15.1,5.1,20
		c13.2,0.1,16.6-2.4,16.6-2.4l0-0.1l-1.6-3.9l-1.9-4.5l-6.4-15.3c-3.6-8.6-3.9-18.2-0.9-27l6.5-19c1.4-4.2,0.2-8.9-3.2-11.9
		c0,0,0,0,0,0c-0.6-0.6-1.3-1.1-2-1.6c-6.1-4.1-13.6-4.7-13.6-4.7s-0.6,0-1.7,0c-1.9,0.1-5.3,0.5-8.4,2c-0.2,0.1-0.4,0.2-0.6,0.3
		c-0.4,0.2-0.8,0.4-1.1,0.7c-1.4,1-2.5,2.2-3.3,3.7l-14.5,26.3c-2.6,4.7-4.1,9.8-4.4,15.2L57.7,193.8z"/>
	<path class="st15" d="M77.1,165.2"/>
	<path class="st13" d="M89.1,183.7c-0.7-0.6-0.9-1.7-0.3-2.6l6.3-9.7c1.1-1.7,2.9-2.8,4.9-3.1l3.4-0.5c0.3,0,0.5,0,0.7,0.1
		c-0.3-0.3-0.7-0.5-1.2-0.4l-3.4,0.5c-2,0.3-3.8,1.4-4.9,3.1l-6.3,9.7C87.7,181.9,88.1,183.2,89.1,183.7z"/>
	<path class="st18" d="M89.1,183.7c0.3,0.1,0.6,0.2,0.9,0.2l6.4-0.1c0.8,0,1.5-0.5,1.8-1.2l6.1-13.2c0.3-0.5,0.1-1.1-0.2-1.5
		c-0.2-0.1-0.5-0.1-0.7-0.1l-3.4,0.5c-2,0.3-3.8,1.4-4.9,3.1l-6.3,9.7C88.2,182.1,88.5,183.1,89.1,183.7z"/>
	<path class="st13" d="M120.6,135.7l7.2,3.9c0,0,5-6.5,0.2-10.8C128,128.9,122.4,128.3,120.6,135.7z"/>
	<path class="st9" d="M85.8,139.2c10.4,0.5,14.8-4.1,14.8-4.1l19.9,0.7c1.9-7.4,7.5-6.8,7.5-6.8l-14.2-2.5c0,0-8-11.1-19.7-8.7
		c0,0,4.1,1,4.1,5.4C98.4,135.9,85.8,139.2,85.8,139.2z"/>
	<path class="st11" d="M85.8,139.2c1.8,0.6,3.5,1,5.1,1.2c4.3,0.5,8-0.2,10.3-0.8c1.8-0.5,3.7-0.7,5.6-0.4l5.3,0.8l0.2,0l15.4-0.3
		l-7.2-3.9l-19.9-0.7C100.7,135,96.2,139.7,85.8,139.2z"/>
	<path class="st3" d="M84.8,139c0.3,0.1,0.7,0.2,1,0.2c0,0,12.6-3.2,12.5-16.1c0-4.5-4.1-5.4-4.1-5.4s-0.4,0-1.2,0
		c1,0.3,3.8,1.6,3.8,5.3C96.9,134.4,87.1,138.2,84.8,139z"/>
	<path class="st19" d="M81.4,131.9c0,0.1,0,0.2,0,0.4c0,0.5,0.1,1.1,0.2,1.6c0.1,0.6,0.2,1.1,0.4,1.7c0.5,1.5,1.3,2.9,2.8,3.4
		c2.3-0.7,12.1-4.6,12-15.9c0-3.7-2.8-5-3.8-5.3c-2.7,0.2-9.2,1.6-11.2,10c-0.1,0.4-0.2,0.9-0.3,1.4c0,0-0.1,0.5-0.1,1.2
		C81.4,130.7,81.4,131.3,81.4,131.9z"/>
	<path class="st6" d="M105.4,146.7c0.7,0.5,1.4,1,2,1.6c0,0,0,0,0,0l4.7-8.4c0,0-2.6,0.1-3.9,1.9
		C107.5,142.7,106.3,144.8,105.4,146.7z"/>
	<path class="st7" d="M90.1,142.1c1-0.1,1.7,0,1.7,0s7.5,0.6,13.6,4.7c1-1.9,2.1-4,2.8-5c1.3-1.8,3.9-1.9,3.9-1.9l-5.3-0.8
		c-1.9-0.3-3.8-0.1-5.6,0.4c-2.3,0.7-6,1.4-10.3,0.8L90.1,142.1z"/>
	<path class="st11" d="M43.8,219.7c0,0,10.8-0.3,20.3-0.7l11.8-0.4c8.1-0.3,16.9,16.4,16.9,16.4l2.3-0.1l-2.2-14
		c0,0-1.5-11.3-8.6-18.1c0,0,0,0,0,0c-3-2.8-6.9-4.9-12.2-4.9C54.3,197.9,43.8,219.7,43.8,219.7z"/>
	<path class="st9" d="M32,218.4l11.8,1.3c0,0,10.5-21.9,28.2-21.7c5.2,0.1,9.2,2.1,12.2,4.9c-0.3-0.3-9.2-8.8-25.4-7.7
		c-15.2,1-24.7,16.5-27.6,21.7C30.9,217.6,31.3,218.4,32,218.4z"/>
	<path class="st6" d="M145,138.7L145,138.7L145,138.7c0.4,0,0.8-1,0.8-2.3c0.1-1.3-0.2-2.3-0.6-2.3c-0.4,0-0.7,1.1-0.8,2.3
		C144.5,137.6,144.7,138.6,145,138.7z"/>
	<path class="st11" d="M81.7,144.1c3.1-1.5,6.5-1.9,8.4-2c1-0.1,1.7,0,1.7,0s7.5,0.6,13.6,4.7c0.7,0.5,1.4,1,2,1.6c0,0,0,0,0,0
		c3.3,2.9,4.6,7.6,3.2,11.9l-6.5,19c-3,8.8-2.7,18.4,0.9,27l6.4,15.3l1.9,4.5l1.6,3.9c0,0,0,0,0,0c0-2.9-0.3-3.9-1-6l-1.3-3.1
		l-6.4-15.3c-3.6-8.6-3.9-18.2-0.9-27l6.5-19c1.4-4.2,0.2-8.9-3.2-11.9c0,0,0,0,0,0c-0.6-0.6-1.3-1.1-2-1.6
		c-6.1-4.1-13.6-4.7-13.6-4.7s-0.6,0-1.7,0c-2.1,0.1-5.7,0.6-9,2.3C82.1,143.8,81.9,144,81.7,144.1z"/>
	<path class="st14" d="M127,136.4l18,2.3c-0.3-0.1-0.6-1.1-0.5-2.3c0.1-1.3,0.4-2.3,0.8-2.3l-18-2.3l0,0l-0.1,0
		c-0.4,0-0.7,1.1-0.8,2.3C126.4,135.3,126.7,136.4,127,136.4z"/>
	<polyline class="st15" points="145.1,138.7 145,138.7 145,138.7 	"/>
	<path class="st20" d="M122.8,134.7c0,0.1,0.1,0.3,0.1,0.4c0.1,0.3,0.4,0.4,0.7,0.4c7.6-0.7,14.2,1.9,14.2,1.9l0-1.5
		c-5.5-2.7-12.7-2.2-14.3-2.1C123,133.9,122.7,134.3,122.8,134.7z"/>
	<path class="st20" d="M136.6,136.6c0,0.8,0.7,1.5,1.5,1.5c0.8,0,1.5-0.7,1.5-1.5c0-0.8-0.7-1.5-1.5-1.5
		C137.2,135.1,136.5,135.8,136.6,136.6z"/>
	<path class="st20" d="M71.4,133.1c0,0,2.6-0.8,6.3-1.1c1.2-0.1,2.4-0.1,3.7-0.1c0-0.6,0-1.2,0-1.7c-2.9-0.1-6.7,0.1-9.9,1.4l0,0
		L71.4,133.1z"/>
	<path class="st20" d="M72.7,132.3c-0.1,0.8-0.8,1.4-1.6,1.4c-0.8-0.1-1.4-0.8-1.4-1.6c0.1-0.8,0.8-1.4,1.6-1.4
		C72.1,130.8,72.8,131.5,72.7,132.3z"/>
	<path class="st11" d="M155.2,213l9.8,10.2l0.1,5.9l2.8,0.6l3.2-8.1c0,0-7.2-2.8-9.7-10.2L155.2,213z"/>
	<path class="st7" d="M136.2,108.7c0.1,4.5,3.1,8.1,6.7,8c0.1,0,0.3,0,0.4,0c3.4-0.3,6-3.9,6-8.2c-0.1-4.5-3.1-8.1-6.7-8
		c-0.5,0-1,0.1-1.5,0.2C138.2,101.6,136.1,104.9,136.2,108.7z"/>
	<path class="st16" d="M149.2,108.5c0.1,4.3-2.6,7.9-6,8.2c0.1,0,0.3,0,0.4,0c3.8-0.1,6.9-3.8,6.8-8.4c-0.1-4.6-3.2-8.2-7.1-8.1
		c-0.8,0-1.6,0.2-2.3,0.5c0.5-0.2,1-0.2,1.5-0.2C146.2,100.4,149.2,104,149.2,108.5z"/>
	<g>
		<path class="st17" d="M122,127c0.4,0,0.7-0.3,0.7-0.7c0-1.3,0.5-2.4,1.5-3.3l14.8-12c0.3-0.2,0.3-0.7,0.1-1
			c-0.2-0.3-0.7-0.3-1-0.1l-14.8,12c-1.3,1.1-2,2.7-2,4.4C121.3,126.7,121.6,127,122,127z"/>
	</g>
	<polygon class="st11" points="124.2,128.2 123.8,126.1 120.6,125.6 119.5,127.4 	"/>
	<path class="st21" d="M171.4,240.7c0.9,0.3,1.5,2,2.2,2.4c0.6,0.4,1.5,0,1.5,0c2.1-4.6-1.9-6.6-1.9-6.6c-0.9,0.6-2.1,0.5-2.1,0.5
		C172.8,238.6,171.4,240.7,171.4,240.7z"/>
	<path class="st7" d="M158.4,243c2.1,0.8,6.6-0.8,8.5-1.8c1.9-1,4.5-0.4,4.5-0.4s1.4-2.1-0.3-3.7c0,0-2.2-0.5-4.2,0.7
		c-1,0.6-1.9,1.1-2.8,1.4C162.4,240.7,160.4,242.1,158.4,243z"/>
	<path class="st7" d="M175.1,243.1c0,0,22.7,2.1,32.4-12.3c0,0,2.1-3.9,0-8.3c-1.1-2.5-3.8-3.9-6.5-3.3c-0.5,0.1-1,0.3-1.4,0.5
		l-26.5,16.7C173.1,236.5,177.1,238.5,175.1,243.1z"/>
	<path class="st3" d="M184.9,236.5c0.4,1,1.4,1.9,2.7,1.9c0.1,0,0.3,0,0.5,0c3.8,0,12.1-1.8,17.7-5.7c2.7-1.8,4.3-4.8,4.3-8.1
		c0-0.8-0.1-1.7-0.3-2.5c-0.1-0.4-0.3-0.8-0.5-1.2c-1.5-2.7-5.3-3.5-7.8-1.4l-15.7,13.3C184.6,233.9,184.4,235.4,184.9,236.5z"/>
	<path class="st8" d="M184.9,236.5c-0.5-1.2-0.3-2.6,0.9-3.6l15.7-13.3c2.5-2.2,6.3-1.3,7.8,1.4c-1.3-3.1-5.4-4.1-8.1-1.8
		l-15.7,13.3C184.2,233.6,184.1,235.3,184.9,236.5z"/>
	<path class="st21" d="M188.3,236.8c0.2,0,0.3,0,0.5,0c0.7-0.2,1.3-0.9,1.2-1.7c0-0.8-0.6-1.3-1.3-1.1c0,0,0,0,0,0
		c0.4,0.1,0.8,0.5,0.8,1.1C189.6,235.8,189,236.6,188.3,236.8z"/>
	<path class="st7" d="M187.6,235.7c0,0.6,0.3,1,0.8,1.1c0.7-0.2,1.2-0.9,1.2-1.7c0-0.6-0.3-1-0.8-1.1
		C188.1,234.2,187.5,234.9,187.6,235.7z"/>
	<g>
		<path class="st7" d="M198.1,228.4c0.1,0.1,0.2,0.2,0.3,0.2c0.1,0,0.2,0,0.2,0c2-1.5,4-3.2,6-5.1c0.1-0.1,0.1-0.4-0.1-0.6
			c-0.1-0.1-0.2-0.2-0.3-0.2c-0.1,0-0.2,0-0.2,0c-2,1.9-4,3.6-6,5.1C197.9,228,197.9,228.2,198.1,228.4z"/>
		<path class="st7" d="M198,230.9c0.1,0.1,0.2,0.2,0.3,0.2c0.1,0,0.2,0,0.3,0c2.4-1.7,4.9-3.7,7.3-6.1c0.1-0.1,0.1-0.4-0.1-0.6
			c-0.1-0.1-0.2-0.2-0.3-0.2c-0.1,0-0.2,0-0.3,0.1c-2.4,2.4-4.9,4.4-7.3,6.1C197.8,230.4,197.8,230.7,198,230.9z"/>
		<path class="st7" d="M201.9,230.4c0.1,0.1,0.2,0.2,0.3,0.2c0.1,0,0.2,0.1,0.2,0c1.6-1.3,3.2-2.7,4.8-4.4c0.1-0.1,0-0.3-0.2-0.5
			c-0.1-0.1-0.2-0.2-0.3-0.2c-0.1,0-0.2,0-0.2,0c-1.6,1.6-3.2,3-4.8,4.3C201.7,230,201.7,230.2,201.9,230.4z"/>
	</g>
	<path class="st7" d="M65.8,174.9c0.2,0.9,0.8,1.5,1.2,1.9c0.4,0.3,1,0.4,1.5,0.4c0.4-0.1,0.7-0.1,1.1-0.2c2.5-0.6,4.6-2.2,6.1-4.3
		L96.3,142c-7-3-13.1,0.6-13.1,0.6l-17,29.8C65.8,173.1,65.6,174,65.8,174.9z"/>
	<path class="st6" d="M68.6,177.1c0.9,0.1,1.9-0.1,2.7-0.3c2-0.6,3.7-1.9,5-3.6l21.5-29.9c-0.5-0.9-1.5-1.3-1.5-1.3l-20.6,30.6
		c-1.4,2.1-3.6,3.7-6.1,4.3C69.3,177,69,177.1,68.6,177.1z"/>
	<path class="st22" d="M67,173.4c0,0.6,0.4,1.2,0.9,1.5c0.4,0.2,0.8,0.3,1.2,0.2c1.1-0.2,3-0.9,4.3-3.4l4.1-7.2l0,0l0.2-0.4
		c0.1-0.3,0-0.6-0.3-0.6l-4.9-0.4c-0.2,0-0.3,0.1-0.4,0.2l-0.3,0.6l-4.1,7.2C67.7,171,67,172.2,67,173.4z"/>
	<g>
		<path d="M128.8,214.6c0.1,0,0.2-0.1,0.2-0.1c1.7-6.1,1.1-12,0.2-15.8c-0.9-4.2-2.2-6.9-2.2-6.9c0-0.1-0.2-0.1-0.3-0.1
			c-0.1,0-0.1,0.2-0.1,0.3c0,0,1.3,2.7,2.2,6.9c0.8,3.8,1.4,9.6-0.2,15.6C128.5,214.5,128.6,214.6,128.8,214.6
			C128.7,214.6,128.7,214.6,128.8,214.6z"/>
	</g>
	<g>
		<path d="M138.5,214.9c2.7,0,4.5-0.2,4.5-0.2l12.2-1.5l6.2-1.5l17.6-2.2l0,0l33.7-9.4c0.1,0,0.2-0.1,0.1-0.2c0-0.1-0.1-0.2-0.2-0.1
			l-33.7,9.4l-17.6,2.2l-6.2,1.5l-12.2,1.5c-0.1,0-14.8,1-21.5-1.7c-0.1,0-0.2,0-0.3,0.1c0,0.1,0,0.2,0.1,0.3
			C125.8,214.8,133.5,215,138.5,214.9z"/>
	</g>
	<g>
		<path d="M102.6,232.6c8.2-0.1,12.4-2.6,12.5-2.6c0.1-0.1,0.1-0.2,0.1-0.3c-0.1-0.1-0.2-0.1-0.3-0.1c-0.1,0-5.5,3.2-16.4,2.4
			c-0.1,0-0.2,0.1-0.2,0.2c0,0.1,0.1,0.2,0.2,0.2C99.9,232.6,101.3,232.7,102.6,232.6z"/>
	</g>
	<path class="st6" d="M71.8,163.8l5.8,0.7l0,0l0.2-0.4c0.1-0.3,0-0.6-0.3-0.6l-4.9-0.4c-0.2,0-0.3,0.1-0.4,0.2L71.8,163.8z"/>
	<path class="st18" d="M156.8,194c11.2-18,31-19.6,36.9-19.7c-1-0.6-1.5-1-1.5-1c-4.3-0.6-10.8-0.9-16.2,1.1
		c-3.2,1.3-8,3.7-13.5,6.4C160.1,184,157.1,188.8,156.8,194z"/>
	<path class="st18" d="M124.5,191.8l3.4-0.1c0,0,2.7,0.2,5.8,1.9c17.7-4,26.8-10.1,26.9-10.2c0,0,0,0,0,0c0.6-0.9,1.2-1.8,1.8-2.5
		c-9.4,4.5-21,9.6-31.2,10.8l-5.4-0.3L124.5,191.8z"/>
	<path class="st3" d="M187.1,168l10.4-2.9l4.4-1.2c0,0,0,0,0,0c0,0,0-0.1,0-0.1c0,0,0,0,0,0l-4.8-0.2c-0.2-0.5-0.4-0.9-0.8-1.3
		c0,0,0,0,0,0c0,0-0.2-0.5-0.5-1.1c0,0,0,0,0.1,0l6.1,0.3c1.2,0.1,2.1,0.9,2.3,2.1s-0.6,2.2-1.7,2.6l-4.9,1.4l-9.9,2.8
		c-0.1,0-0.2,0-0.3,0c-0.5,0-1-0.3-1.1-0.8C186.1,168.8,186.5,168.1,187.1,168z"/>
	<path class="st23" d="M95.9,181.1l0.2,0c0.3,0,0.6-0.2,0.7-0.4l3.2-6.6c0.3-0.5-0.2-1.1-0.7-1.1c-0.1,0-0.1,0-0.2,0
		c-0.2,0.1-0.4,0.2-0.5,0.4l-3.4,6.6C95,180.5,95.3,181.1,95.9,181.1z"/>
	<g class="st24">
		<path class="st3" d="M94.2,125.8c0.1,0,0.2-0.1,0.3-0.2c0.1-0.2,0.1-0.4-0.1-0.5c-0.1-0.1-3.2-2.3-11.1-1.9
			c-0.2,0-0.4,0.2-0.4,0.4c0,0.2,0.2,0.4,0.4,0.4c7.7-0.4,10.6,1.7,10.6,1.7C94.1,125.7,94.1,125.8,94.2,125.8z"/>
	</g>
	<g class="st24">
		<path class="st3" d="M92,129.1c0.1,0,0.2-0.1,0.3-0.2c0.1-0.2,0.1-0.4-0.1-0.5c-0.1-0.1-3.3-2.3-9.6-1.9c-0.2,0-0.4,0.2-0.4,0.4
			c0,0.2,0.2,0.4,0.4,0.4c6-0.5,9,1.7,9.1,1.7C91.8,129.1,91.9,129.1,92,129.1z"/>
	</g>
	<g class="st24">
		<path class="st3" d="M88.9,131.4c0.1,0,0.3-0.1,0.3-0.2c0.1-0.2,0-0.4-0.2-0.5c-0.1,0-2.1-1-6.2-0.9c-0.2,0-0.4,0.2-0.4,0.4
			c0,0.2,0.2,0.4,0.4,0.4c0,0,0,0,0.1,0c3.8-0.1,5.8,0.8,5.8,0.8C88.8,131.4,88.9,131.4,88.9,131.4z"/>
	</g>
</g>
<g>
	<path class="st25" d="M153.7,275.8c0,0,4.6,4.5,13.5,2.4c8.9-2.1,8.9-5.2,10.5-5.7c1.6-0.5,9.8,0,11.7-2.9c0.3-0.4,0.4-1,0.4-1.6
		l0,0c0.2-3.5-2.8-9-2.8-9s-1.6,3.3-4.4,2.9c-2.8-0.4-5.6-4.3-7.8-4.5c-0.1,0-0.1,0-0.2,0c-2.4,0.3-7.3,9.7-10.7,10.9
		C160.4,269.4,154.1,270.4,153.7,275.8z"/>
	<path class="st26" d="M174.7,257.2c0.1,0,0.1,0,0.2,0c2.3,0.2,5,4.1,7.8,4.5c2.8,0.4,4.4-2.9,4.4-2.9l0.4-6.6
		c-1.8,0.4-7.6,1.4-11.7,0.6l-0.1,1.4C175.7,254.2,175.6,255.7,174.7,257.2z"/>
	<path class="st27" d="M153.8,277.5c3.4,3,10.9,3,15.4,1.9c3.9-0.9,8.1-4.3,9.2-5.2c0.2-0.2,0.3-0.3,0.3-0.3l3.5-0.3l-0.1,2.2
		l6.8-2.2c0.4-0.1,0.7-0.5,0.7-0.9l0.3-4.8c0,0.6-0.2,1.1-0.4,1.6c-1.8,2.9-10,2.4-11.7,2.9c-1.6,0.5-1.6,3.6-10.5,5.7
		c-8.9,2.1-13.5-2.4-13.5-2.4C153,277,153.8,277.5,153.8,277.5z"/>
	<path class="st25" d="M178.4,274.1l3.7,1.6l0.1-2.2l-3.5,0.3C178.7,273.9,178.6,274,178.4,274.1z"/>
</g>
<g>
	<path class="st25" d="M238.6,278.3c0,0-4.6,4.5-13.5,2.4c-8.9-2.1-8.9-5.2-10.5-5.7c-1.6-0.5-9.8,0-11.7-2.9
		c-0.3-0.4-0.4-1-0.4-1.6l0,0c-0.2-3.5,2.8-9,2.8-9s1.6,3.3,4.4,2.9c2.8-0.4,5.6-4.3,7.8-4.5c0.1,0,0.1,0,0.2,0
		c2.4,0.3,7.3,9.7,10.7,10.9C231.9,271.9,238.2,272.9,238.6,278.3z"/>
	<path class="st26" d="M217.7,259.7c-0.1,0-0.1,0-0.2,0c-2.3,0.2-5,4.1-7.8,4.5c-2.8,0.4-4.4-2.9-4.4-2.9l-0.4-6.6
		c1.8,0.4,7.6,1.4,11.7,0.6l0.1,1.4C216.7,256.7,216.8,258.2,217.7,259.7z"/>
	<path class="st27" d="M238.6,280c-3.4,3-10.9,3-15.4,1.9c-3.9-0.9-8.1-4.3-9.2-5.2c-0.2-0.2-0.3-0.3-0.3-0.3l-3.5-0.3l0.1,2.2
		l-6.8-2.2c-0.4-0.1-0.7-0.5-0.7-0.9l-0.3-4.8c0,0.6,0.2,1.1,0.4,1.6c1.8,2.9,10,2.4,11.7,2.9c1.6,0.5,1.6,3.6,10.5,5.7
		c8.9,2.1,13.5-2.4,13.5-2.4C239.3,279.6,238.6,280,238.6,280z"/>
	<path class="st25" d="M213.9,276.7l-3.7,1.6l-0.1-2.2l3.5,0.3C213.6,276.4,213.7,276.5,213.9,276.7z"/>
</g>
<path class="st28" d="M218.6,257.2c-7.6,6.1-16.9,2.1-16.9,2.1l-9.5-70.1l-2.1,65.7c0,0-1.7,1-5.4,1.5c-1.2,0.2-2.5,0.3-4.1,0.4
	c-6.7,0.3-7.7-1.9-7.7-1.9l-3.3-99.4l0-0.8l-0.1-4.2l42.2,1.1c0.1,0.7,0.3,3.4,0.4,4.2c0.1,1.2,0.1,2.5,0.2,3.8L218.6,257.2z"/>
<path class="st25" d="M192.2,189.3l-2.1,65.7c0,0-1.7,1-5.4,1.5l4.3-90.2L192.2,189.3z"/>
<path class="st25" d="M212,155.9c-6.7,0.5-17.1,5.2-24.1,5c-5.6-0.2-15.1-3.9-18.3-6.1l-0.1-5.3l42.2,2.2
	C211.8,152.5,212,155.2,212,155.9z"/>
<g>
	<polygon class="st29" points="260.5,93.1 243,155.4 243,155.4 212.2,146.1 230.3,86.8 231.6,82.6 	"/>
	<polygon class="st30" points="231.6,82.6 230.3,86.8 209.4,83.7 210.6,79.9 	"/>
	<polygon class="st11" points="230.3,86.8 212.2,146.1 192.3,138.5 209.4,83.7 	"/>
	<path class="st11" d="M235.1,80.5c0,0-2.8-0.1-3.5,2.1l-21-2.7c0,0,0.8-0.7,4-0.7C217.7,79.2,235.1,80.5,235.1,80.5z"/>
	<path class="st30" d="M260.5,93.1l-28.9-10.5c0.7-2.2,3.5-2.1,3.5-2.1s0,0,0,0l0,0c0.3,0.2,11.6,7.9,18.5,9.3
		c0.2,0,0.5,0.1,0.7,0.1C260.5,91.3,260.2,91.2,260.5,93.1z"/>
	<path class="st30" d="M243,155.4c-0.5-0.1-33.7-3.9-50.8-17l19.9,7.6L243,155.4z"/>
	<line class="st31" x1="244.6" y1="148.6" x2="244.6" y2="148.6"/>
	<path class="st29" d="M260.5,93.1c-0.3-1.9,0-1.8-6.3-3.1c-0.2,0-0.4-0.1-0.7-0.1c-6.8-1.4-18.1-9.1-18.5-9.3l15,7.4
		c1.2,0.6,2.5,1,3.8,1.3C257.7,89.9,261.2,90.5,260.5,93.1z"/>
</g>
<path class="st32" d="M208.8,47.9c-0.3-0.6-0.6-1.2-0.9-1.8c-0.5-2.4-1.1-4.2-1.7-5.6c-1-2.3-2.9-4.1-5.2-5.1
	c-3.6-1.5-7-1.8-10.7-0.1c-4.6,2.2-5.7,9.2-5.7,9.2c-0.2,0.3-0.3,0.5-0.5,0.7c-0.1,0-0.2,0-0.2,0c0.1-0.6,0.3-1.5,0.7-2.6
	c0,0,0,0,0,0c0.9-2.8,2.6-6.5,5.6-7.9c4-1.8,7.6-1.5,11.4,0.1c2.4,1,4.4,2.8,5.5,5.2C207.6,41.4,208.3,45.5,208.8,47.9z"/>
<path class="st33" d="M207.3,53.1L207.3,53.1c-0.4,1.7-0.9,3.1-1.4,4.5c-0.7,1.5-1.4,2.8-2.2,3.9c-2.6,3.7-5.8,5.4-7.7,6
	c-1.1,0.4-2.2,0.4-3.3,0.2l-0.5-0.1c-1.3-0.3-2.5-1-3.4-2.1c-0.7-0.9-1.3-1.8-1.8-2.9v0c0,0,0,0,0,0v0c-1.2-2.7-1.7-5.7-1.7-8.4
	c0-1.9,0.1-3.6,0.3-5c0.2-0.5,0.5-1.1,0.7-1.6c0.6-1.4,1-2.7,1-2.7l0.1-0.8l0.5-3.3c2.4-2,5.9-3.7,10.1-2.9c4.1,0.8,7,3.8,8.9,6.8
	v4.7c0,0,0,0.9,0.1,2.1C207.2,52.1,207.2,52.6,207.3,53.1z"/>
<path class="st33" d="M185.7,49.3c-0.2,1.3-0.4,3.1-0.3,5c-0.1,0-0.1,0-0.2,0.1c-0.9,0.3-1.8-0.1-2.1-1c-0.7-1.8-1.7-4.8-0.4-6.9
	c0.5-0.8,0.9-1.1,1.3-1.1c0.1,0,0.2,0,0.2,0c0.8,0.1,1.5,1.1,1.9,1.8C186,47.6,185.8,48.3,185.7,49.3z"/>
<path class="st33" d="M207.6,57.6c-0.5,0.4-1.2,0.4-1.6,0l-0.1-0.1c0.6-1.3,1.1-2.8,1.4-4.5v0c0.1-0.6,0.3-1.2,0.4-1.9c0,0,0,0,0,0
	c0.7-0.4,1.5-0.6,2.2-0.5c0,0,0.1,0,0.1,0c0.5,0.2,1,0.6,1.1,1.4C211.3,53.9,208.9,56.4,207.6,57.6z"/>
<path class="st34" d="M209.9,50.7c-0.5-0.1-1.2,0-1.8,0.3c-0.1,0.1-0.3,0.1-0.4,0.2c0,0,0,0,0,0c-0.1,0.7-0.2,1.3-0.4,1.9
	c-0.1-0.5-0.1-1-0.2-1.5c-0.1-1.1-0.1-2.1-0.1-2.1v-4.7c0.3,0.5,0.6,0.9,0.8,1.4c0.3,0.6,0.6,1.2,0.9,1.8c0,0,0,0,0,0c0,0,0,0,0,0
	C209.3,49.1,209.6,50,209.9,50.7z"/>
<path class="st33" d="M204.6,70.8c-2.1,1.7-8,6.3-11.8,7.7c-0.4,0.1-0.8,0.3-1.1,0.3c-3.4,0.6-6.1,0-7.2-0.8l1.9-3.5c0,0,0,0,0,0
	c0,0,0,0,0,0c0.1-0.3,0.1-0.6,0.2-0.9c0.2-1.7,0.4-4.3,0.4-6.8c0-1.5,0-2.9,0.1-4.1c0.5,1,1,2,1.8,2.9c0.9,1.1,2.1,1.8,3.4,2.1
	l0.5,0.1c1.1,0.2,2.3,0.2,3.3-0.2c1.9-0.7,5-2.4,7.7-6c-0.1,1.2-0.2,2.9-0.3,4.2c-0.1,1.2-0.1,2.2-0.1,2.6
	C203.4,69,204,69.9,204.6,70.8z"/>
<path class="st34" d="M188,40.9l-0.5,3.3l-0.1,0.8c0,0-0.4,1.2-1,2.7c-0.2,0.5-0.4,1.1-0.7,1.6c0.1-1,0.3-1.7,0.4-2.2
	c-0.2-0.3-0.4-0.7-0.7-1.1c-0.3-0.4-0.7-0.7-1.2-0.7c0.1-0.2,0.3-0.4,0.5-0.7C185.3,43.6,186.5,42.2,188,40.9z"/>
<path class="st35" d="M207.9,46.2c-0.2-0.5-0.5-0.9-0.8-1.4c-1.9-3-4.8-6-8.9-6.8c-4.2-0.8-7.7,0.9-10.1,2.9
	c-1.6,1.3-2.7,2.7-3.4,3.7c0,0,1-7,5.7-9.2c3.8-1.8,7.2-1.4,10.7,0.1c2.3,1,4.2,2.8,5.2,5.1C206.8,41.9,207.4,43.8,207.9,46.2z"/>
<path class="st36" d="M208.8,48C208.8,48,208.8,47.9,208.8,48C208.8,47.9,208.8,47.9,208.8,48c-0.5-2.5-1.1-6.5-1.8-7.9
	c-1.1-2.3-3-4.2-5.5-5.2c-3.8-1.5-7.4-1.9-11.4-0.1c-3,1.4-4.7,5.1-5.6,7.9c0-0.2,1.2-6.2,2.5-8.4c0,0,4.9-4.4,11.8-4.3
	c0,0,6.9,1.6,10.1,6.7C209,38.5,209,44.6,208.8,48z"/>
<path class="st32" d="M210,50.8C209.9,50.7,209.9,50.7,210,50.8c-0.3-0.7-0.7-1.7-1.2-2.8c0.3-3.3,0.3-9.5,0.2-11.3
	c0.1,0.1,0.1,0.2,0.2,0.3c0.1,0.2,0.2,0.3,0.2,0.5C209.6,38.9,210.8,45.7,210,50.8z"/>
<path class="st37" d="M207.1,44.8v4.1c-1.6-2.9-4.6-6.8-9.4-7.5c-4.3-0.6-7.9,1.1-10.2,2.7l0.5-3.3c2.4-2,5.9-3.7,10.1-2.9
	C202.3,38.8,205.2,41.8,207.1,44.8z"/>
<path class="st38" d="M209.9,50.7c-0.5-0.1-1.2,0-1.8,0.3c-0.2-0.5-0.6-1.3-1-2.1v-4.1c0.3,0.5,0.6,0.9,0.8,1.4
	c0.3,0.6,0.6,1.2,0.9,1.8c0,0,0,0,0,0c0,0,0,0,0,0C209.3,49.1,209.6,50,209.9,50.7z"/>
<path class="st38" d="M188,40.9l-0.5,3.3c-1,0.7-1.7,1.3-2.2,1.8c-0.3-0.4-0.7-0.7-1.2-0.7c0.1-0.2,0.3-0.4,0.5-0.7
	C185.3,43.6,186.5,42.2,188,40.9z"/>
<path class="st37" d="M203.6,61.5c-0.1,1.2-0.2,2.9-0.3,4.2c-3,2.1-7.7,5-10.9,4.3c-2.5-0.5-4.3-2-5.5-3.3c0-1.5,0-2.9,0.1-4.1
	c0.5,1,1,2,1.8,2.9c0.9,1.1,2.1,1.8,3.4,2.1l0.5,0.1c1.1,0.2,2.3,0.2,3.3-0.2C197.8,66.9,201,65.2,203.6,61.5z"/>
<path class="st37" d="M206.1,57c0,0,0.9-1.1,1-1.6c0.1-0.4,0.5-2.2,0.7-3c0.1-0.3,0.3-0.5,0.7-0.6c0.5-0.1,1.4,0,1.8,0.5
	C211,53,208.1,57.5,206.1,57z"/>
<path class="st30" d="M216.6,74.3c0,0,3.6,2.4,7.7,9.3l-5.1-0.8c0,0-4.1-6.1-6.8-6.6C212.4,76.3,214.3,74.8,216.6,74.3z"/>
<path class="st37" d="M184.8,49.9c-0.4,1.2,0.5,3.5,0.5,3.5c-2.9,0.2-3.4-7.1-1.9-7.2c0.7,0,1.2,0.2,1.5,0.4
	c0.4,0.3,0.6,0.8,0.4,1.3C185.3,48.5,185.1,49.2,184.8,49.9z"/>
<path class="st36" d="M219.8,90.4L219.8,90.4c0,0.4,0,0.7,0,1c0,0,0,0,0,0c-0.1,1.9-0.2,4-0.4,6.1c0,0,0,0,0,0
	c-0.3,2.3-0.9,4.8-1.8,7.4c-0.3,0.7-0.5,1.5-0.9,2.2c0,0,0,0,0,0c-0.2-0.1-1.1-0.7-2.5-1.5c-2-1.1-4.9-2.5-8-3.5
	c-2.7-0.8-5.6-1.3-8.1-0.9l0,0.1l-7.4,15.2c0,0-0.5,0.2-1,0.1c-0.1,0,0-0.1,0-0.2c-0.6-5.9-3.6-7.4-3.6-7.4
	c-2.3,0.5-6.7,0.8-11.2,0.9c-0.4,0-0.7,0-1.1,0h0c-0.2,0-0.4,0-0.6,0c0.1-2.3,0.1-4,0.1-4.8c-0.1-1.2,0-2.8,0.1-4.6
	c-2.7-2.5-6.1-4.1-8.1-4.9c-0.5-0.2-1-0.4-1.3-0.5c-0.3-0.1-0.4-0.1-0.4-0.1l1.3-2l8.9-14.3c0.9-1.4,2.3-2.5,4-2.9l8.9-2.2
	c0,0.3-0.1,0.7-0.2,0.9c0,0,0,0,0,0c-0.1,0-2.6,1.7-2.4,2.8c0,0-0.4,1.4-0.5,2.6v0c0,0,1.2,1.7,5.5,1.5c4.3-0.2,10.9-3.5,13.4-5.7
	c1.3-1.1,2.6-2.2,3.6-3c0.6-0.4,1-0.8,1.3-1l5.5,4.2l4.1,3.1c1.3,1,2.1,2.4,2.3,4c0.1,0.5,0.1,1.1,0.2,1.7c0,0,0,0,0,0
	C219.6,86.2,219.8,88.2,219.8,90.4z"/>
<path class="st39" d="M186.4,74.5l-1.9,3.5c-0.3-0.2-0.4-0.5-0.5-0.7C183.8,76.2,186.3,74.6,186.4,74.5z"/>
<path class="st23" d="M207.3,71.6c-0.3,0.2-0.7,0.6-1.3,1c-1,0.8-2.3,1.9-3.6,3c-2.6,2.2-9.2,5.5-13.4,5.7c-4.3,0.2-5.5-1.5-5.5-1.5
	v0c0.2-1.1,0.5-2.6,0.5-2.6c0,0.2,0.2,0.5,0.5,0.7c1.1,0.9,3.8,1.5,7.2,0.8c3.5-0.7,10.5-6.1,12.9-8c0,0,0.1-0.1,0.1-0.1
	c0.4-0.3,1-0.3,1.4,0L207.3,71.6z"/>
<path class="st36" d="M211.8,130.7c-1.2,3.3-1.5,7.2-1.4,10.8c0,0.6,0,1.2,0.1,1.8c0.3,5.1,1.4,9.1,1.4,9.1c-3.6,0-15,6.3-24.9,5.6
	c-9.9-0.7-18-8.6-18-8.6c0.8-3.5,2.2-15.9,3.1-26.8c0.8-0.1,1.6-0.3,2.4-0.5c3,3.1,7.5,6.9,13.5,10.2c2.9,1.6,6.5,1.3,9.1-0.7
	c0,0,0.1-0.1,0.1-0.1c0,0,0.1-0.1,0.1-0.1c0,0,0.1-0.1,0.1-0.1c0,0,0.1-0.1,0.1-0.1c0.1-0.1,0.1-0.1,0.2-0.2
	c0.2-0.1,0.3-0.3,0.5-0.4c0.1-0.1,0.1-0.1,0.2-0.2l0,0c4.8-4.8,11.8-13.2,15.5-24.7c1.6,0.9,2.6,1.5,2.6,1.5
	c1.4-3.3,2.2-6.6,2.7-9.6C218,109.8,214.1,124.4,211.8,130.7z"/>
<path class="st33" d="M189.5,116.5c-0.4,0.2-0.9,0.5-1.3,0.7c-4.9,2.5-9.5,4.1-13.8,5c-0.8,0.2-1.6,0.3-2.4,0.5
	c-6.3,1.1-11.5,0.8-14.7,0.3c-2.4-0.4-4.6-2.7-3.9-5c2.5-8.7,6.4-16.5,9.2-21c0.2-0.3,0.4-0.6,0.6-0.9c0.2-0.3,0.4-0.6,0.6-0.9
	c0.3,0.1,0.7,0.3,1.3,0.5c1.3,0.5,3.2,1.4,5.1,2.6h0c0.7,0.4,1.4,0.9,2,1.5c0.3,0.3,0.6,0.5,0.9,0.8c-0.1,1.7-0.2,3.2-0.1,4.4
	c0,0.1,0,0.1,0,0.2c0.1,0.8,0,2.6-0.1,4.8c0.2,0,0.4,0,0.6,0h0c0.4,0,0.7,0,1.1,0c3.7-0.1,7.4-0.3,9.9-0.7c0.5-0.1,0.9-0.2,1.3-0.2
	c0,0,3,1.5,3.6,7.4C189.5,116.4,189.5,116.5,189.5,116.5z"/>
<path class="st23" d="M217.5,104.9l-0.9,2.2c0,0,0,0,0,0c-0.4-0.3-5-3.2-10.5-5c-2.6-0.8-5.4-1.2-8.1-0.9c-0.4,0-0.8,0.1-1.1,0.2
	l0.6-2.7C197.5,98.8,206.6,96.5,217.5,104.9z"/>
<path class="st40" d="M196.8,101.5c0.4-0.1,0.7-0.1,1.1-0.2l-2.9,5.9c-0.1-12.1,6.7-20.4,6.8-20.5
	C198.9,91.4,196.8,101.5,196.8,101.5z"/>
<path class="st23" d="M173.5,97.8l-0.3,2.7c-2.7-2.5-6.1-4.1-8.1-4.9c-0.5-0.2-1-0.4-1.3-0.5c-0.3-0.1-0.4-0.1-0.4-0.1l1.3-2
	C171,94.9,173.5,97.8,173.5,97.8z"/>
<path class="st40" d="M173.2,100.5c0.5-5.6,1.8-12.7,1.8-12.7l-4.7,10.4C170.2,98.2,172.2,99.4,173.2,100.5"/>
<path class="st39" d="M196.8,101.5c0,0-0.2,0.5,0.7,0.7l0.4-0.9C198,101.3,197.2,101.3,196.8,101.5z"/>
<path class="st39" d="M216.6,107.1c0,0-0.2,0.5-2.1-0.3l-0.8-0.4l0.3-0.8C214.1,105.6,216.4,107,216.6,107.1z"/>
<path class="st33" d="M214.1,105.6c-0.6,2-1.4,3.9-2.2,5.6c-2.9,6.3-6.5,11.5-9.9,15.3c-0.5,0.5-0.9,1-1.3,1.5
	c-0.1,0.1-0.2,0.2-0.3,0.3c-0.1,0.1-0.2,0.2-0.3,0.3c-0.1,0.1-0.2,0.2-0.2,0.3c-0.5,0.5-0.9,0.9-1.3,1.4c-0.2,0.2-0.5,0.5-0.7,0.7
	c-0.2,0.2-0.5,0.4-0.7,0.6c-2.6,2-6.2,2.3-9.1,0.7c-4.7-2.6-8.5-5.4-11.3-8c-0.8-0.7-1.6-1.5-2.2-2.2c4.4-0.9,9.2-2.6,14.2-5.2
	c0.5,0.1,0.8-0.4,0.9-0.5c0,0,0,0,0,0l1.1-0.1l3.5-7.3l0,0l0,0l3.4-7l0.5-0.9C203.4,100.4,210.4,103.6,214.1,105.6z"/>
<path class="st37" d="M211.9,111.3c0.2-2.4-0.1-5-2.4-6.1c-4.7-2.4-11.9-3-11.9-3l0.5-0.9c5.4-0.8,12.4,2.4,16.1,4.4
	C213.4,107.6,212.7,109.5,211.9,111.3z"/>
<path class="st37" d="M189.5,116.5l-0.9,0.5c-5,2.6-9.8,4.2-14.2,5.2c0.7,0.7,1.4,1.4,2.2,2.2c10.7-4,13.9-7.9,13.9-7.9L189.5,116.5
	z"/>
<path class="st33" d="M207.7,109c0,0-0.1,2.5-1.2,2.5c0,0-0.1,2.5-1.1,2.6c0,0-0.6,1.4-1.6,1.4c-1,0-6.8-0.6-6.8-0.6l-3.8,1
	c0,0-1.2,0.5-3.1,0.9c-0.2,0-0.4,0.1-0.6,0.1c0,0,0,0,0,0c-0.4,0.1-0.8,0.1-1.2,0.2c-1.2,0.2-2.6,0.3-3.9,0.2
	c-4.7-0.2-5-6.7,1.2-8.1l6.7-5.5c0.4-0.3,0.8-0.5,1.3-0.5h4.7c0,0,8,1.9,7.9,3c-0.1,1.1-1.1,1.7-1.1,1.7L207.7,109z"/>
<path class="st37" d="M188.7,117c0.2,0,0.5-0.1,0.8-0.1c-0.4,0.1-0.8,0.1-1.2,0.2C188.2,117,188.4,117,188.7,117z"/>
<path class="st37" d="M207.7,109c0,0-0.1,2.5-1.2,2.5c0,0-0.1,2.5-1.1,2.6c0,0-0.6,1.4-1.6,1.4c-1,0-6.8-0.6-6.8-0.6l-3.8,1
	c0,0-1.2,0.5-3.1,0.9c3.6-0.8,7.3-3.4,7.3-3.4l0.5-10h0.3c0,0,8,1.9,7.9,3c-0.1,1.1-1.1,1.7-1.1,1.7L207.7,109z"/>
<path class="st37" d="M164.5,110.7c0,0,3.6-3.2,8.6-2.5l2.4,1.6L164.5,110.7z"/>
<path class="st37" d="M173.1,104.9c-2.6-3.6-7.2-6.4-10.4-8c0.2-0.3,0.4-0.6,0.6-0.9c0.2-0.3,0.4-0.6,0.6-0.9
	c0.3,0.1,0.7,0.3,1.3,0.5c1.3,0.5,3.2,1.4,5.1,2.6h0c0.7,0.4,1.4,0.9,2,1.5c0.3,0.3,0.6,0.5,0.9,0.8
	C173.1,102.2,173,103.7,173.1,104.9z"/>
<path class="st37" d="M196.4,76.7l-3.6,1.8c-0.4,0.1-0.8,0.3-1.1,0.3c-3.4,0.6-6.1,0-7.2-0.8l1.9-3.5c0,0.1-0.6,3.2,3.2,3.5
	C193,78.3,195.9,76.9,196.4,76.7z"/>
<path class="st41" d="M175,87.8c0,0,3.7-11.5,8.5-13.5c0,0-3.8-1.1-6.9,1.8c-3.1,2.9-4.8,10.7-2.5,17.3L175,87.8z"/>
<path class="st40" d="M219.8,90.4L219.8,90.4c0,0.4,0,0.7,0,1c0-0.1-2.1-7.1-4-9.7c-1.8-2.6-8.1-2-8.1-2c1.5-1.6,3.4-2.9,5.1-3.9
	l4.1,3.1c1.3,1,2.1,2.4,2.3,4c0.1,0.5,0.1,1.1,0.2,1.7c0,0,0,0,0,0C219.6,86.2,219.8,88.2,219.8,90.4z"/>
<path class="st41" d="M196.4,103.3c0,0,0.6-11.1,7.2-19.2c6.6-8.2,12.9-9.8,12.9-9.8s-3.9-1.7-7.6-1.4c0,0-15.6,5.1-16.8,30.8
	L196.4,103.3z"/>
<path class="st41" d="M214.1,140l-1,3.1c-0.5-0.3-1-0.6-1.4-0.9c-8.4-5.1-11.1-8.9-13.1-12c0.7-0.7,1.4-1.4,2.1-2.2
	c0.4-0.5,0.9-1,1.3-1.5C205.8,133.3,214.1,140,214.1,140z"/>
<path class="st40" d="M210.5,143.3c-8.3-4.9-11.3-8.7-13.3-11.7c0,0,0.1-0.1,0.1-0.1c0,0,0.1-0.1,0.1-0.1c0,0,0.1-0.1,0.1-0.1
	c0,0,0.1-0.1,0.1-0.1c0.1-0.1,0.1-0.1,0.2-0.2c0.2-0.1,0.3-0.3,0.5-0.4c0.1-0.1,0.1-0.1,0.2-0.2l0,0c1.9,2.9,4.5,6.4,11.8,11.2
	C210.4,142.1,210.4,142.7,210.5,143.3z"/>
<g>
	<path class="st23" d="M211.2,143c-0.1,0-0.3,0-0.4-0.1l-1.7-1c-0.3-0.2-0.5-0.6-0.3-0.9l1.7-4l0.3,0.1l-0.3-0.1
		c0.1-0.2,0.3-0.3,0.5-0.4c0.2-0.1,0.4,0,0.6,0.1l1.5,0.9c0.3,0.2,0.4,0.6,0.3,0.9l-1.6,4c-0.1,0.2-0.2,0.4-0.4,0.4
		C211.4,143,211.3,143,211.2,143z M211.2,137.2C211.2,137.2,211.2,137.2,211.2,137.2c-0.1,0-0.1,0-0.1,0.1l-1.7,4
		c0,0.1,0,0.1,0.1,0.2l1.7,1c0,0,0.1,0,0.1,0c0,0,0.1,0,0.1-0.1l1.6-4c0-0.1,0-0.1-0.1-0.2L211.2,137.2
		C211.3,137.2,211.2,137.2,211.2,137.2z"/>
</g>
<path class="st23" d="M234.7,128.1L234.7,128.1c-6.3-2.1-9.9-9.3-7.9-16.1l0,0c2-6.8,8.7-10.7,15-8.6l0,0c6.3,2.1,9.9,9.3,7.9,16.1
	l0,0C247.7,126.4,241,130.2,234.7,128.1z"/>
<g>
	
		<ellipse transform="matrix(8.222456e-02 -0.9966 0.9966 8.222456e-02 111.3941 339.3281)" class="st29" cx="239.9" cy="109.2" rx="0.9" ry="0.8"/>
	<path class="st29" d="M244.3,119.6l0,0.1c-0.1,0.4-0.4,0.5-0.7,0.3l-0.7-0.2l-0.2,0.6l1,0.3c0.2,0.1,0.4,0.1,0.6,0
		c0.2-0.1,0.3-0.2,0.5-0.3c0.1-0.1,0.1-0.2,0.2-0.4l0.1-0.3L244.3,119.6L244.3,119.6z"/>
	<path class="st29" d="M242.9,108.3c-0.1,0-0.2,0.1-0.2,0.1c-0.1,0.1-0.1,0.1-0.2,0.2c-0.1,0.1-0.2,0.3-0.2,0.4l0,0l0,0l0,0
		c0,0,0,0,0,0l0,0c0,0,0,0,0,0c0,0,0,0.1,0,0.1c0,0.1,0,0.2,0.1,0.2c0,0.1,0.1,0.2,0.1,0.3c0,0,0,0.1,0,0.1c0,0,0,0.1-0.1,0.1
		c0,0,0-0.1,0-0.1c0,0,0-0.1,0-0.1c0-0.1-0.1-0.2-0.1-0.2c0-0.1-0.1-0.2-0.1-0.3c0,0,0-0.1,0-0.2c0,0,0,0,0,0l0,0c0,0,0,0,0,0l0,0
		l0,0c0,0,0,0,0,0c0-0.1,0-0.1,0-0.1l0,0l0,0l0,0l0,0c0,0,0,0,0,0c0,0,0,0,0,0c0,0,0,0,0,0c0,0,0,0,0-0.1c0,0,0,0,0-0.1
		c0,0,0,0,0.1,0c0.1-0.1,0.2-0.1,0.2-0.1c0,0,0.1,0,0.1,0C242.8,108.3,242.8,108.3,242.9,108.3z"/>
	<path class="st29" d="M243.4,108.9c-0.1,0-0.1,0.1-0.2,0.1c-0.1,0-0.1,0.1-0.2,0.1c-0.1,0.1-0.2,0.2-0.2,0.4l0,0l0,0l0,0
		c0,0,0,0,0,0l0,0c0,0,0,0,0,0c0,0,0,0.1,0,0.1c0,0.1,0,0.1,0.1,0.2c0,0.1,0.1,0.2,0.1,0.2c0,0,0,0.1,0,0.1c0,0,0,0.1-0.1,0.1
		c0,0,0-0.1,0-0.1c0,0,0-0.1,0-0.1c0-0.1-0.1-0.1-0.1-0.2c0-0.1-0.1-0.1-0.1-0.2c0,0,0-0.1,0-0.1c0,0,0,0,0,0l0,0c0,0,0,0,0,0l0,0
		l0,0l0,0c0,0,0-0.1,0-0.1c0,0,0,0,0-0.1l0,0c0,0,0,0,0,0c0,0,0,0,0,0c0,0,0,0,0,0c0,0,0,0,0-0.1c0,0,0,0,0,0c0,0,0,0,0,0
		c0.1-0.1,0.1-0.1,0.2-0.1c0,0,0.1,0,0.1,0C243.3,108.9,243.4,108.9,243.4,108.9z"/>
	<path class="st29" d="M232,119.5l11.5,3.8c0.2,0.1,0.2,0.2,0.2,0.4l0,0c0,0.2-0.2,0.3-0.4,0.2l-11.5-3.8c-0.2-0.1-0.2-0.2-0.2-0.4
		l0,0C231.7,119.5,231.9,119.4,232,119.5z"/>
	<path class="st29" d="M230.5,119l0.7,0.2c0.2,0.1,0.2,0.2,0.2,0.4l0,0c0,0.2-0.2,0.3-0.4,0.2l-0.7-0.2c-0.2-0.1-0.2-0.2-0.2-0.4
		l0,0C230.2,119,230.4,118.9,230.5,119z"/>
	<path class="st29" d="M229.7,118.7L229.7,118.7c0.2,0.1,0.3,0.3,0.3,0.4l0,0c0,0.2-0.2,0.3-0.4,0.2l-0.1,0
		c-0.2-0.1-0.2-0.2-0.2-0.4l0,0C229.3,118.7,229.5,118.6,229.7,118.7z"/>
	<path class="st29" d="M234.8,118.5L234.8,118.5c0.2,0.1,0.3,0.3,0.3,0.4l0,0c0,0.2-0.2,0.3-0.4,0.2l-0.1,0
		c-0.2-0.1-0.2-0.2-0.2-0.4l0,0C234.5,118.5,234.7,118.4,234.8,118.5z"/>
	<path class="st29" d="M234,118.2L234,118.2c0.2,0.1,0.3,0.3,0.3,0.4l0,0c0,0.2-0.2,0.3-0.4,0.2l-0.1,0c-0.2-0.1-0.2-0.2-0.2-0.4
		l0,0C233.6,118.3,233.8,118.2,234,118.2z"/>
	<path class="st29" d="M245.2,117.8L245.2,117.8c0,0.3-0.1,0.4-0.3,0.4l0,0c-0.2,0-0.3-0.1-0.3-0.3l0-0.1c0-0.2,0.1-0.3,0.3-0.3l0,0
		C245.1,117.5,245.2,117.7,245.2,117.8z"/>
	<path class="st29" d="M245.2,116.8L245.2,116.8c0,0.3-0.1,0.4-0.3,0.4l0,0c-0.2,0-0.3-0.1-0.3-0.3l0-0.1c0-0.2,0.1-0.3,0.3-0.3l0,0
		C245.1,116.5,245.2,116.6,245.2,116.8z"/>
	<path class="st29" d="M244.9,118.6L244.9,118.6c-0.2-0.1-0.4,0-0.4,0.2l-0.3,0.9c-0.1,0.4-0.4,0.5-0.7,0.3l-0.7-0.2l0.4-1.4l0,0
		c0-0.4-0.2-0.7-0.5-0.9l-0.8-0.3c-0.1,0-0.3-0.1-0.4,0c-0.2,0-0.4,0.1-0.5,0.2c-0.2,0.1-0.3,0.3-0.3,0.5l-0.2,0.6
		c0,0.1-0.1,0.3,0,0.4c0,0.3,0.1,0.6,0.3,0.7c0.1,0.1,0.2,0.1,0.3,0.2l0.9,0.3l0,0.1c-0.1,0.4-0.3,0.6-0.7,0.5
		c-0.2-0.1-0.5-0.2-0.8-0.2c-0.2-0.1-0.4,0.1-0.4,0.3l0,0c0,0.2,0.1,0.3,0.2,0.4l0.9,0.3c0.1,0,0.3,0.1,0.4,0c0.3,0,0.5-0.2,0.7-0.4
		c0.1-0.1,0.2-0.2,0.2-0.4l0.1-0.3l0.9,0.3c0.4,0.1,0.8,0,1-0.3c0.1-0.1,0.1-0.2,0.2-0.4l0.3-1C245.1,118.8,245,118.7,244.9,118.6z
		 M242.2,119.6l-0.8-0.3c-0.3-0.1-0.4-0.4-0.3-0.8l0.1-0.2c0.1-0.3,0.3-0.5,0.6-0.4l0.8,0.3L242.2,119.6z"/>
	<path class="st29" d="M245.1,115.9c-0.1-0.8-0.4-1.7-0.8-2.4c-0.5-0.9-1.1-1.8-1.8-2.4c-0.8-0.7-1.7-1.2-2.6-1.5
		c-1-0.3-2-0.4-3-0.3c-1,0.1-1.9,0.4-2.8,0.9c-0.9,0.5-1.6,1.2-2.3,2c-0.6,0.7-1,1.5-1.3,2.4l0,0l-0.1,0.2c0,0.1-0.1,0.2-0.1,0.3
		l0,0l-0.5,1.6c-0.2,0.6,0.1,1.2,0.6,1.3c0.1,0,0.4,0.1,0.6,0.2c0.1,0,0.4,0.1,0.5,0.2c0.5,0.2,1.1-0.2,1.2-0.7l0.1-0.3l0.9,0.3
		c0.3,0.1,0.5,0,0.8-0.1l0,0.1c0,0.2,0.2,0.4,0.4,0.4l0.2,0.1c0.3,0.1,0.5,0.1,0.7-0.1c0.1,0.2,0.3,0.4,0.6,0.5l2.1,0.7
		c0.1,0,0.3,0.1,0.4,0c0.3,0,0.5-0.2,0.7-0.4c0.1-0.1,0.1-0.2,0.2-0.4l0.2-0.6c0-0.1,0.1-0.3,0-0.4c0-0.5-0.4-0.8-0.8-1
		c-0.4-0.1-2-0.2-2.3,0.2c-0.2,0.2-0.3,0.8-0.4,1.1c-0.2-0.1-0.2-0.4-0.1-0.6l0.3-0.9c0-0.2,0-0.3-0.2-0.4l0,0
		c-0.2-0.1-0.4,0-0.4,0.2l-0.3,0.9c-0.1,0.3-0.4,0.4-0.7,0.3l-0.3-0.1c0,0,0,0,0,0c0.1-0.1,0.1-0.2,0.2-0.4l0.3-1
		c0-0.2,0-0.3-0.2-0.4l0,0c-0.2-0.1-0.4,0-0.4,0.2l-0.3,0.9c-0.1,0.4-0.4,0.5-0.7,0.3l-0.7-0.2l0.7-2.5c0.1-0.2-0.1-0.4-0.3-0.4l0,0
		c-0.1,0-0.3,0.1-0.3,0.2l-0.9,3.3c-0.1,0.4-0.4,0.5-0.7,0.3l-0.6-0.2c-0.3-0.1-0.5-0.4-0.4-0.7l0.4-1.4l0,0c0,0,0,0,0,0l0,0
		c0,0,0-0.1,0-0.1l0,0c1.2-3.9,5-6.2,8.6-5.1c2.6,0.8,4.4,3.2,4.9,5.9c0,0.2,0.2,0.3,0.3,0.3l0,0C245,116.2,245.1,116.1,245.1,115.9
		z M237.4,117.4c0.2-0.5,1.4-0.4,1.7-0.3l0.1,0c0.3,0.1,0.4,0.4,0.3,0.7l-0.1,0.2c-0.1,0.4-0.3,0.6-0.7,0.5l-1.5-0.5
		C237.3,117.8,237.3,117.7,237.4,117.4z"/>
	<path class="st29" d="M235.1,112.5c0.1-0.1,0.1-0.2,0.2-0.3c0.8-1,1.9-1.6,3-1.7c-1.4-0.4-2.9,0-4,1.2c0.1,0.1,0.3,0.2,0.4,0.3
		C234.8,112.2,235,112.4,235.1,112.5z"/>
</g>
</svg>
