<?xml version="1.0" encoding="utf-8"?>
<!-- Generator: Adobe Illustrator 26.0.2, SVG Export Plug-In . SVG Version: 6.00 Build 0)  -->
<svg version="1.1" id="Layer_1" xmlns="http://www.w3.org/2000/svg" xmlns:xlink="http://www.w3.org/1999/xlink" x="0px" y="0px"
	 viewBox="0 0 4918.3 1823.2" style="enable-background:new 0 0 4918.3 1823.2;" xml:space="preserve">
<style type="text/css">
	.st0{fill:#FFFFFF;}
	.st1{fill:#E6254B;}
</style>
<g id="Layer_2_00000092450535014642916900000006057156739500202926_">
	<path class="st0" d="M4006.7,1823.2L4006.7,1823.2c-503.5,0-911.6-408.1-911.6-911.6l0,0C3095.1,408.1,3503.2,0,4006.7,0l0,0
		c503.5,0,911.6,408.1,911.6,911.6l0,0C4918.3,1415.1,4510.2,1823.2,4006.7,1823.2z"/>
</g>
<g id="Layer_1_00000039836632258955934750000007011048456278146968_">
	<g>
		<ellipse class="st1" cx="3995" cy="359.7" rx="68.4" ry="69.4"/>
		<path class="st1" d="M4569.4,1013.1v10.1c0,29.3-19.5,42.6-50.2,42.6h-63.3v49.6h82.2c16.8,0,31.8-4.6,45.4-13.8
			c13.6-9.5,23.2-21.7,29.4-36.6c4.3-10,6.4-20.3,6.4-30.9v-21h-49.5L4569.4,1013.1L4569.4,1013.1z"/>
		<path class="st1" d="M4207.5,224.2c-5.2,4.8-9.9,9.9-14.2,15.2c-4.2,5.3-7.9,10.9-10.8,16.7c-5.8,11.6-8.2,24.2-6.3,36.7l0.3,2.3
			l0.4,2.2l0.2,1.1c0,0.2,0.1,0.4,0.1,0.5l0.2,0.5c0.2,0.6,0.4,1.2,0.7,1.9c1,2.8,2.4,5.5,4,8.2c3.2,5.5,7.4,10.7,11.7,16.3
			c4.2,5.6,8.7,11.3,12,18.1c1.6,3.4,2.9,7.1,3.4,10.9c0.4,3.8-0.2,7.7-1.7,10.9c0.1-3.6-0.7-7-2-10c-1.4-3-3.2-5.7-5.3-8.2
			c-4.2-5-9.3-9.6-14.3-14.5s-10.1-10.1-14.5-16.4c-2.2-3.1-4.2-6.6-5.7-10.4c-0.4-0.9-0.7-2-1.1-3l-0.3-0.8
			c-0.1-0.2-0.1-0.5-0.2-0.7l-0.3-1.5l-0.6-2.9c-0.2-1-0.3-1.9-0.4-2.9c-0.5-3.8-0.6-7.8-0.5-11.7l0.3-2.9l0.1-1.5l0.2-1.5l0.5-2.9
			c0.2-1,0.4-1.9,0.7-2.9c0.2-1,0.5-1.9,0.8-2.8c0.3-0.9,0.6-1.9,0.9-2.8c0.7-1.8,1.3-3.6,2.2-5.4c0.8-1.8,1.7-3.4,2.6-5.1
			c1-1.6,2-3.3,3.1-4.8c4.3-6.2,9.5-11.5,15.3-16c2.9-2.2,5.9-4.2,9-6C4200.8,226.8,4204.1,225.3,4207.5,224.2z"/>
		<path class="st1" d="M4262.2,257.5c-4.4,4.3-8.3,8.8-11.8,13.4s-6.6,9.4-8.9,14.4c-4.8,10-6.7,20.5-5.2,31l0.2,2l0.4,1.9l0.2,0.9
			c0,0.1,0.1,0.3,0.1,0.5l0.1,0.4c0.2,0.5,0.3,1,0.5,1.6c0.8,2.3,2,4.6,3.3,6.9c2.7,4.6,6.3,9.2,9.9,14s7.4,9.9,10.2,15.8
			c1.3,3,2.4,6.2,2.8,9.5c0.3,3.3-0.3,6.7-1.7,9.5c-0.1-3.1-0.8-6-2-8.5c-1.2-2.5-2.9-4.7-4.7-6.9c-3.7-4.2-8.1-8-12.5-12.2
			c-4.4-4.1-8.8-8.6-12.7-14.1c-1.9-2.7-3.7-5.8-5.1-9.1c-0.4-0.8-0.7-1.8-1-2.7l-0.2-0.7c-0.1-0.2-0.1-0.4-0.2-0.6l-0.3-1.3
			l-0.6-2.6l-0.4-2.5c-0.5-3.4-0.5-6.8-0.4-10.2c0.2-1.7,0.2-3.4,0.6-5.1l0.4-2.5c0.2-0.8,0.4-1.7,0.6-2.5s0.4-1.6,0.7-2.5
			c0.3-0.8,0.5-1.6,0.8-2.4c0.6-1.6,1.2-3.2,1.9-4.7c0.7-1.5,1.5-3,2.3-4.4c0.9-1.4,1.7-2.8,2.7-4.1c3.8-5.4,8.4-9.9,13.4-13.7
			c2.5-1.9,5.2-3.5,7.9-5C4256.4,259.6,4259.3,258.3,4262.2,257.5z"/>
		<path class="st1" d="M3597.4,1296.8h1004.3c9.8,0,17.7,7.9,17.7,17.7v14.4c0,9.8-7.9,17.7-17.7,17.7H3597.4
			c-9.8,0-17.7-7.9-17.7-17.7v-14.4C3579.6,1304.8,3587.6,1296.8,3597.4,1296.8z"/>
		<path class="st1" d="M3467.4,1296.8h73.5c9.8,0,17.7,7.9,17.7,17.7v14.4c0,9.8-7.9,17.7-17.7,17.7h-73.5
			c-9.8,0-17.7-7.9-17.7-17.7v-14.4C3449.7,1304.8,3457.6,1296.8,3467.4,1296.8z"/>
		<path class="st1" d="M3393.8,1296.8h19c9.8,0,17.7,7.9,17.7,17.7v14.4c0,9.8-7.9,17.7-17.7,17.7h-19c-9.8,0-17.7-7.9-17.7-17.7
			v-14.4C3376.1,1304.8,3384,1296.8,3393.8,1296.8z"/>
		<path class="st1" d="M3793.8,1159.7h19c9.8,0,17.7,7.9,17.7,17.7v14.4c0,9.8-7.9,17.7-17.7,17.7h-19c-9.8,0-17.7-7.9-17.7-17.7
			v-14.4C3776.1,1167.6,3784,1159.7,3793.8,1159.7z"/>
		<path class="st1" d="M3721.1,1159.7h19c9.8,0,17.7,7.9,17.7,17.7v14.4c0,9.8-7.9,17.7-17.7,17.7h-19c-9.8,0-17.7-7.9-17.7-17.7
			v-14.4C3703.4,1167.6,3711.4,1159.7,3721.1,1159.7z"/>
		<path class="st1" d="M4604.1,864.3l1.7,5.2c4.3,13.1-2.7,27.2-15.5,31.5l0,0c-12.9,4.3-26.8-2.7-31-15.8l-1.7-5.2
			c-4.3-13.1,2.7-27.2,15.5-31.5l0,0C4585.9,844.2,4599.8,851.2,4604.1,864.3z"/>
		<path class="st1" d="M4582.5,790.8l1.7,5.2c4.3,13.1-2.7,27.2-15.5,31.5l0,0c-12.9,4.3-26.8-2.7-31-15.8l-1.7-5.2
			c-4.3-13.1,2.7-27.2,15.5-31.5l0,0C4564.3,770.7,4578.2,777.7,4582.5,790.8z"/>
		<path class="st1" d="M4598.1,927.6L4598.1,927.6c-15.1-2.3-28.7,9.6-28.7,25.1v70.6c0,29.3-19.5,42.6-49.4,42.6h-62.7V953.3l0,0
			c-5.1-29-29.9-50.2-59-50.2h-70.2c-11.8,0-21.4,2.2-31.2,6.2c-14.4,6.2-26.4,16-36,29.8c-9.3,13.8-14.2,29-14.2,45.8v48.2
			c0,11.1,2.1,21.7,6.4,31.7c8.5,20.3,23.8,36.9,43.8,44.7c9.9,3.2,19.5,5.7,31.2,5.7h78.5v4.6c0,29.6-12.8,49.9-41.7,49.9
			c-21.5,0-44.2,0.5-66.6,0.5c-15.1,0-26.6,13.6-24.3,28.7l0,0c1.8,12.2,12.2,21.3,24.3,21.3h77.3c10.7,0,21.4-2.4,31-5.7
			c20.3-7.9,35-24.4,43.5-44.7c4.3-8.9,7.2-20.1,7.2-31.7v-22.8h81.7c33.1,0,61.9-20.6,74.8-50.4c3.2-8.9,5.6-20.1,5.6-30.9v-81.5
			C4619.3,940.1,4610.3,929.5,4598.1,927.6z M4406.6,1065.8h-68.1c-28.8,0-41.7-21.1-41.7-50.7v-15.5c1.1-27.9,14.2-46.1,41.7-46.1
			h68.1V1065.8z"/>
		<path class="st1" d="M4551.6,722.5c-29.5-58.5-67.6-111.8-113.9-158.8c-57-57.9-123.3-103.3-197.3-135
			c-76.5-32.9-157.8-49.5-241.6-49.5s-165,16.7-241.6,49.5c-73.9,31.7-140.3,77.2-197.3,135S3458.3,689,3427.1,764
			c-27.4,65.7-43.5,135-47.8,206.2l-0.5-0.2l-0.3,16.4c-0.3,7.7-0.4,15.3-0.4,23v3.2l-2,125.6c0,45,36.8,82.1,81.4,82.1
			c6.4,0,35.2-0.3,48.3-0.3c11,0,33.1,0.3,39.2,0.3c43.8,0,80.1-37.1,80.1-82.1v-22.8h81.7c23,0,43.9-9.9,58.8-25.9l2,3.5
			c8.1,13.9,22.9,22.4,38.8,22.4h18.3c22.2,0,41.1-8.1,56.1-22.2c14.7,14.1,33.6,22.2,55.8,22.2h184.5c10.7,0,21.4-2.4,31.2-5.7
			c20-7.9,35.5-24.4,43.2-44.7c4.3-10,6.4-20.6,6.4-31.7v-47.4c0-11.9-2.1-21.7-6.4-31.7c-13.6-34.7-48.3-51-82-51
			c-36.3,0-160.7,30.1-177.8,72.4c-8.5,20.9-6.9,62.3-6.1,90.3c-15.2-5.7-24.3-22.8-24.3-42.6v-70.9c0-12.4-8.9-22.9-21-24.8l0,0
			c-14.9-2.3-28.4,9.5-28.4,24.8v73.3c-1.1,27.4-21.1,40.1-49.9,40.1h-24.9c0.1-0.3,0.2-0.5,0.4-0.8c3.2-8.9,5.6-20.1,5.6-30.9
			v-81.5c0-12.5-9-23.2-21.3-25.1l0,0c-15.1-2.3-28.7,9.6-28.7,25.1v70.6c0,29.3-19.5,42.6-49.4,42.6H3625V863.4
			c0-15.9-14.5-27.7-29.8-24.2l0,0c-11.2,2.5-19.1,12.6-19.1,24.2v264c0,29.3-20.8,42.6-49.9,42.6h-51c-29.9,0-49.1-13.3-49.1-42.6
			l1.6-114.2l0,0l0,0l0,0c0-2.4,0-4.9,0-7.3v-0.3c4-313.9,252.1-571,562.1-575.8c224.9-3.5,421,125.9,517,315.6
			c5.8,11.5,19,16.8,30.9,12.4l0,0C4552,752.5,4558.4,736,4551.6,722.5z M3980,1018.4c0-42.8,99.8-64.2,125.7-64.2h4.8
			c27.8,0,40.9,17.6,41.9,45.5v15.5c0,29.5-13.1,50.7-41.9,50.7h-131.3C3979.2,1049.8,3980,1042.3,3980,1018.4z"/>
		<path class="st1" d="M3686.3,715.9c2.4-7.6,5.1-15.1,8-22.6c37.3-94,111.8-161.5,199.4-192c-117.7,3.9-228.3,72-283.8,183.5
			c13.3,3.6,26.6,8,39.8,13.4C3662.4,703.5,3674.6,709.4,3686.3,715.9z"/>
	</g>
</g>
<g>
	<path class="st0" d="M848.4,834.9H745v12.3c0,37.7-10.2,72.3-30.5,103.8s-49.2,56.5-86.6,75.1c-37.4,18.6-80.8,27.8-130.3,27.8
		c-50.1,0-94.7-9.3-133.8-27.8c-39.2-18.5-69.8-43.7-91.9-75.5c-22.1-31.8-33.1-66.8-33.1-105.1c0-37.7,10.6-122.2,31.8-253.5
		l111.3,6.2c-7.1,44.8-13.6,91.3-19.4,139.6c-5.9,48.3-8.8,80.1-8.8,95.4c0,20.6,5.9,39.6,17.7,57s28.4,31.1,49.9,41.1
		s45.5,15,72,15c26.5,0,49.9-5,70.2-15s35.9-23.6,46.8-40.6c10.9-17.1,16.3-35.6,16.3-55.7V216.5H745v510.6h103.4L848.4,834.9
		L848.4,834.9z"/>
	<path class="st0" d="M1230.9,727.1v107.8H848.4V727.1H980V393.2h118.4v333.9H1230.9z M925.3,905.5h91v110.4h-91V905.5z
		 M1059.5,905.5h91v110.4h-91L1059.5,905.5L1059.5,905.5z"/>
	<path class="st0" d="M1870.9,452.8c30.9,45.6,46.4,99.1,46.4,160.3v221.7h-686.4V727.1h116.6V393.2h118.4v141.3
		c26.5-33,50.5-59.8,72-80.4s46.7-37.4,75.5-50.4c28.8-12.9,62.1-19.4,99.8-19.4C1787.4,384.4,1840,407.2,1870.9,452.8z
		 M1563.5,550.9c-39.8,39.2-72.3,84.4-97.6,135.6v40.6h333v-91c0-40-9.9-74-29.6-102s-47.6-42-83.5-42
		C1644,492.1,1603.2,511.7,1563.5,550.9z"/>
	<path class="st0" d="M2522.3,834.9H2411c-13,146-74.2,219.1-183.7,219.1c-31.8,0-83-5.6-153.7-16.8V930.3
		c70.7,10.6,118.4,15.9,143.1,15.9c18.8,0,33.6-3.2,44.2-9.7c10.6-6.5,18.4-17.7,23.4-33.6c5-15.9,7.5-38.6,7.5-68h-102.5
		c-121.9,0-182.8-68.9-182.8-206.7c0-70.1,7.8-123.4,23.4-159.9s37.7-61.1,66.3-73.8s66.1-19,112.6-19c34.1,0,70.4,2.2,108.7,6.6
		s70.4,9.6,96.3,15.5v329.5h108.7v107.8H2522.3z M2144.3,696.6c12.9,20.3,38.9,30.5,77.7,30.5h73.3V487.7
		c-22.4-2.9-43.9-4.4-64.5-4.4c-24.7,0-44.5,3.4-59.2,10.2c-14.7,6.8-26.2,20-34.5,39.8c-8.3,19.7-12.4,49-12.4,87.9
		C2124.8,651.1,2131.3,676.3,2144.3,696.6z"/>
	<path class="st0" d="M2772.3,393.2v441.7h-250V727.1h131.6V393.2H2772.3z M2601.8,200.6h91V311h-91V200.6z M2736.1,200.6h91V311
		h-91V200.6z"/>
</g>
<g>
	<path d="M309.7,1212.2H198.4v-46.6h274.1v46.6H362.3v330.6h-52.6V1212.2z"/>
	<path d="M629.9,1526.8c-13.5-14.6-20.3-35.6-20.3-63.1c0-27,6.9-46.9,20.8-59.5c13.9-12.6,36-20.4,66.3-23.3l77.9-7.1v-21.4
		c0-16.1-3.5-27.7-10.4-34.8c-6.9-7.1-17.2-10.7-30.7-10.7c-30.7,0-66.2,2.2-106.4,6.6l-1.6-37.3c38.7-9.1,74.7-13.7,108-13.7
		c32.2,0,55.6,7.2,70.2,21.7c14.6,14.4,21.9,37.2,21.9,68.3v132.1c0.7,7.3,3.2,12.9,7.4,16.7c4.2,3.8,10.9,6.5,20,8l-1.6,39.5
		c-15.7,0-29.1-1.7-40-5.2s-20.7-8.9-29.1-16.2c-31.1,14.3-62.1,21.4-93.2,21.4C663.1,1548.8,643.4,1541.6,629.9,1526.8z
		 M763.1,1495.7l11.5-3.8v-80.6l-71.3,6.6c-14.3,1.5-24.8,5.8-31.5,12.9c-6.8,7.1-10.1,17.6-10.1,31.5c0,29.2,12.2,43.9,36.7,43.9
		C720.7,1506.1,742.3,1502.6,763.1,1495.7z"/>
	<path d="M991.2,1268.7h51l48.2,230.3h10.4l57.6-224.8h53.2l58.1,224.8h10.4l48.2-230.3h50.4l-60.9,274.1h-83.3l-49.3-200.1
		l-49.9,200.1H1052L991.2,1268.7z"/>
	<path d="M1548.2,1540.1l-16.4-2.7l2.2-43.9c44.2,6.2,75.8,9.3,94.9,9.3c19.4,0,34-2.9,43.9-8.8c9.9-5.8,14.8-15.4,14.8-28.5
		c0-9.5-2.5-16.7-7.4-21.7c-4.9-4.9-11.2-8.6-18.9-11c-7.7-2.4-18.6-4.7-32.9-6.9l-13.2-2.2c-20.8-3.3-37.4-7.5-49.6-12.6
		c-12.3-5.1-21.7-12.6-28.2-22.5s-9.9-23.4-9.9-40.6c0-56.7,34.7-85,104.2-85c21.9,0,49.3,2.7,82.2,8.2l15.9,3.3l-1.1,42.8
		c-40.9-5.8-72.4-8.8-94.3-8.8c-37.3,0-55.9,11.3-55.9,34c0,8.4,2.4,14.9,7.1,19.5s10.9,8,18.4,10.1c7.5,2.2,18.2,4.6,32.1,7.1
		c2.6,0.4,7.7,1.3,15.4,2.7c21.6,4,38.5,8.7,50.7,14s21.4,13.1,27.4,23.3c6,10.2,9,24.1,9,41.7c0,30.3-8.8,52.6-26.3,66.6
		c-17.5,14.1-44.6,21.1-81.1,21.1C1609.8,1548.8,1582.2,1545.8,1548.2,1540.1z"/>
	<path d="M1922.2,1516.2c-17.9-21.7-26.9-56.2-26.9-103.4c0-50.8,9.6-88.5,28.8-113.2c19.2-24.7,48.9-37,89.1-37
		c74.6,0,111.9,42.4,111.9,127.2l-3.3,37.3h-174.9c0.4,19.7,2.9,35,7.7,45.8c4.7,10.8,12.4,18.6,23,23.3c10.6,4.8,25.6,7.1,45,7.1
		c11.3,0,24.1-0.3,38.4-0.8c14.3-0.5,27-1.4,38.4-2.5l15.4-1.6l1.1,39.5c-42.8,7.3-77.3,11-103.6,11
		C1970.1,1548.8,1940.1,1537.9,1922.2,1516.2z M2074.1,1387.1c0-29.6-4.7-50.6-14-63.1c-9.3-12.4-24.9-18.6-46.9-18.6
		c-23,0-39.8,6.5-50.4,19.5s-16.1,33.7-16.4,62.2H2074.1z"/>
	<path d="M2309.8,1516.2c-17.9-21.7-26.9-56.2-26.9-103.4c0-50.8,9.6-88.5,28.8-113.2s48.9-37,89.1-37
		c74.6,0,111.9,42.4,111.9,127.2l-3.3,37.3h-174.9c0.4,19.7,2.9,35,7.7,45.8c4.7,10.8,12.4,18.6,23,23.3c10.6,4.8,25.6,7.1,45,7.1
		c11.3,0,24.1-0.3,38.4-0.8s27-1.4,38.4-2.5l15.4-1.6l1.1,39.5c-42.8,7.3-77.3,11-103.6,11
		C2357.7,1548.8,2327.7,1537.9,2309.8,1516.2z M2461.7,1387.1c0-29.6-4.7-50.6-14-63.1c-9.3-12.4-24.9-18.6-46.9-18.6
		c-23,0-39.8,6.5-50.4,19.5c-10.6,13-16.1,33.7-16.4,62.2H2461.7z"/>
	<path d="M2686.5,1152.3h51v390.4h-51V1152.3z"/>
</g>
</svg>
