<?xml version="1.0" encoding="utf-8"?>
<!-- Generator: Adobe Illustrator 26.0.2, SVG Export Plug-In . SVG Version: 6.00 Build 0)  -->
<svg version="1.1" xmlns="http://www.w3.org/2000/svg" xmlns:xlink="http://www.w3.org/1999/xlink" x="0px" y="0px"
	 viewBox="0 0 1823.24 1823.24" style="enable-background:new 0 0 1823.24 1823.24;" xml:space="preserve">
<style type="text/css">
	.st0{fill:#FFFFFF;}
	.st1{fill:#E6254B;}
</style>
<g id="Layer_2">
	<path class="st0" d="M911.62,1823.24L911.62,1823.24C408.15,1823.24,0,1415.1,0,911.62v0C0,408.15,408.15,0,911.62,0h0
		c503.47,0,911.62,408.15,911.62,911.62v0C1823.24,1415.1,1415.1,1823.24,911.62,1823.24z"/>
</g>
<g id="Layer_1">
	<g>
		<ellipse class="st1" cx="899.93" cy="359.69" rx="68.39" ry="69.44"/>
		<path class="st1" d="M1474.31,1013.14v10.14c0,29.28-19.49,42.56-50.19,42.56h-63.27v49.61h82.22c16.82,0,31.77-4.61,45.38-13.83
			c13.61-9.49,23.23-21.69,29.37-36.6c4.27-10.03,6.41-20.33,6.41-30.9v-20.99h-49.49H1474.31z"/>
		<path class="st1" d="M1112.36,224.19c-5.21,4.82-9.93,9.89-14.16,15.21c-4.19,5.33-7.93,10.88-10.78,16.72
			c-5.81,11.63-8.16,24.23-6.35,36.69l0.31,2.33l0.44,2.23l0.21,1.12c0.04,0.18,0.07,0.38,0.11,0.55l0.16,0.47
			c0.22,0.63,0.37,1.22,0.66,1.93c0.98,2.76,2.4,5.48,4.01,8.2c3.24,5.45,7.45,10.74,11.69,16.29c4.22,5.56,8.69,11.32,12.01,18.09
			c1.61,3.39,2.91,7.07,3.36,10.88c0.43,3.82-0.17,7.68-1.68,10.93c0.06-3.61-0.69-6.96-1.99-9.95c-1.37-2.98-3.22-5.66-5.32-8.19
			c-4.23-5.04-9.28-9.59-14.31-14.47c-5.04-4.87-10.12-10.07-14.53-16.36c-2.2-3.14-4.15-6.61-5.73-10.38
			c-0.41-0.9-0.74-2-1.09-3.03l-0.26-0.78c-0.07-0.25-0.11-0.49-0.17-0.74l-0.32-1.46l-0.62-2.93c-0.16-0.97-0.29-1.92-0.42-2.89
			c-0.54-3.84-0.63-7.77-0.51-11.68l0.26-2.93l0.13-1.46l0.22-1.45l0.46-2.9c0.2-0.96,0.44-1.9,0.67-2.85
			c0.21-0.95,0.47-1.89,0.77-2.82c0.29-0.93,0.56-1.86,0.87-2.78c0.67-1.82,1.35-3.63,2.19-5.36c0.77-1.76,1.69-3.44,2.6-5.12
			c1-1.62,1.96-3.26,3.06-4.79c4.28-6.22,9.54-11.52,15.27-15.97c2.88-2.21,5.89-4.22,9.02-5.96
			C1105.74,226.82,1108.98,225.29,1112.36,224.19z"/>
		<path class="st1" d="M1167.1,257.46c-4.38,4.33-8.32,8.78-11.85,13.42c-3.5,4.65-6.6,9.43-8.95,14.43
			c-4.8,9.96-6.67,20.51-5.16,31.02l0.25,1.97l0.36,1.87l0.17,0.94c0.03,0.15,0.05,0.32,0.09,0.46l0.13,0.38
			c0.18,0.51,0.3,0.98,0.54,1.58c0.8,2.3,1.98,4.59,3.33,6.9c2.7,4.63,6.26,9.18,9.86,14c3.57,4.82,7.38,9.86,10.16,15.81
			c1.35,2.98,2.43,6.2,2.75,9.54c0.31,3.34-0.3,6.7-1.7,9.46c-0.05-3.13-0.79-5.98-1.97-8.49c-1.24-2.51-2.87-4.74-4.71-6.85
			c-3.7-4.22-8.09-8.04-12.46-12.19c-4.38-4.14-8.82-8.61-12.69-14.07c-1.93-2.73-3.65-5.76-5.05-9.08
			c-0.36-0.79-0.66-1.77-0.97-2.68l-0.23-0.7c-0.06-0.22-0.1-0.43-0.15-0.64l-0.28-1.28l-0.55-2.57l-0.37-2.52
			c-0.46-3.36-0.54-6.79-0.44-10.2c0.18-1.7,0.24-3.42,0.55-5.1l0.41-2.53c0.18-0.84,0.39-1.66,0.59-2.49
			c0.19-0.83,0.42-1.65,0.69-2.46c0.26-0.81,0.5-1.62,0.78-2.42c0.59-1.58,1.2-3.16,1.94-4.67c0.68-1.53,1.5-2.99,2.3-4.44
			c0.88-1.4,1.73-2.82,2.7-4.15c3.78-5.37,8.41-9.91,13.45-13.68c2.53-1.87,5.17-3.55,7.92-4.99
			C1161.3,259.56,1164.15,258.32,1167.1,257.46z"/>
		<path class="st1" d="M502.26,1296.84h1004.27c9.78,0,17.71,7.93,17.71,17.71v14.41c0,9.78-7.93,17.71-17.71,17.71H502.26
			c-9.78,0-17.71-7.93-17.71-17.71l0-14.41C484.55,1304.77,492.48,1296.84,502.26,1296.84z"/>
		<path class="st1" d="M372.28,1296.84h73.46c9.78,0,17.71,7.93,17.71,17.71v14.41c0,9.78-7.93,17.71-17.71,17.71h-73.46
			c-9.78,0-17.71-7.93-17.71-17.71v-14.41C354.57,1304.77,362.5,1296.84,372.28,1296.84z"/>
		<path class="st1" d="M298.72,1296.84h19.02c9.78,0,17.71,7.93,17.71,17.71v14.41c0,9.78-7.93,17.71-17.71,17.71h-19.02
			c-9.78,0-17.71-7.93-17.71-17.71v-14.41C281.01,1304.77,288.94,1296.84,298.72,1296.84z"/>
		<path class="st1" d="M698.71,1159.69h19.02c9.78,0,17.71,7.93,17.71,17.71v14.41c0,9.78-7.93,17.71-17.71,17.71h-19.02
			c-9.78,0-17.71-7.93-17.71-17.71v-14.41C680.99,1167.62,688.92,1159.69,698.71,1159.69z"/>
		<path class="st1" d="M626.05,1159.69h19.02c9.78,0,17.71,7.93,17.71,17.71v14.41c0,9.78-7.93,17.71-17.71,17.71h-19.02
			c-9.78,0-17.71-7.93-17.71-17.71v-14.41C608.34,1167.62,616.27,1159.69,626.05,1159.69z"/>
		<path class="st1" d="M1508.96,864.3l1.69,5.17c4.28,13.06-2.68,27.16-15.54,31.51h0c-12.86,4.34-26.75-2.72-31.03-15.78
			l-1.69-5.17c-4.28-13.06,2.68-27.16,15.54-31.51v0C1490.79,844.18,1504.68,851.24,1508.96,864.3z"/>
		<path class="st1" d="M1487.36,790.77l1.69,5.17c4.28,13.06-2.68,27.16-15.54,31.51v0c-12.86,4.34-26.75-2.72-31.03-15.78
			l-1.69-5.17c-4.28-13.06,2.68-27.16,15.54-31.51l0,0C1469.19,770.65,1483.09,777.71,1487.36,790.77z"/>
		<path class="st1" d="M1502.97,927.61L1502.97,927.61c-15.09-2.29-28.66,9.57-28.66,25.07v70.61c0,29.28-19.49,42.56-49.39,42.56
			h-62.74v-112.5v0c-5.1-29.02-29.95-50.15-58.98-50.15h-70.23c-11.75,0-21.36,2.17-31.23,6.23c-14.42,6.23-26.43,15.99-36.04,29.82
			c-9.34,13.83-14.15,29.01-14.15,45.81v48.25c0,11.11,2.14,21.69,6.41,31.72c8.54,20.33,23.76,36.87,43.78,44.73
			c9.88,3.25,19.49,5.69,31.23,5.69h78.49v4.61c0,29.55-12.81,49.88-41.65,49.88c-21.46,0-44.22,0.53-66.64,0.48
			c-15.05-0.03-26.58,13.58-24.34,28.69l0,0c1.81,12.22,12.15,21.26,24.32,21.26h77.34c10.68,0,21.36-2.44,30.97-5.69
			c20.29-7.86,34.97-24.4,43.51-44.73c4.27-8.95,7.21-20.06,7.21-31.72v-22.77h81.69c33.1,0,61.93-20.6,74.75-50.42
			c3.2-8.95,5.61-20.06,5.61-30.9v-81.45C1524.24,940.13,1515.19,929.47,1502.97,927.61z M1311.47,1065.85h-68.08
			c-28.83,0-41.65-21.14-41.65-50.69V999.7c1.07-27.92,14.15-46.08,41.65-46.08h68.08V1065.85z"/>
		<path class="st1" d="M1456.53,722.51c-29.46-58.54-67.64-111.81-113.91-158.8c-56.99-57.87-123.35-103.3-197.26-135.05
			c-76.53-32.87-157.8-49.53-241.57-49.53s-165.05,16.67-241.58,49.53c-73.9,31.74-140.27,77.18-197.26,135.05
			c-56.99,57.87-101.73,125.26-132.99,200.31c-27.38,65.74-43.48,134.97-47.8,206.23l-0.51-0.25l-0.26,16.36
			c-0.27,7.65-0.41,15.32-0.41,23.01v3.23l-1.97,125.62c0,45,36.84,82.14,81.42,82.14c6.41,0,35.24-0.27,48.32-0.27
			c10.95,0,33.1,0.27,39.24,0.27c43.78,0,80.09-37.14,80.09-82.14v-22.77h81.69c22.96,0,43.86-9.92,58.79-25.94l2.04,3.5
			c8.13,13.91,22.88,22.44,38.81,22.44h18.35c22.16,0,41.11-8.13,56.06-22.23c14.68,14.1,33.64,22.23,55.79,22.23h184.47
			c10.68,0,21.36-2.44,31.23-5.69c20.02-7.86,35.51-24.4,43.25-44.73c4.27-10.03,6.41-20.6,6.41-31.72v-47.44
			c0-11.93-2.14-21.69-6.41-31.72c-13.62-34.7-48.32-50.96-81.96-50.96c-36.31,0-160.71,30.09-177.8,72.38
			c-8.54,20.87-6.94,62.35-6.14,90.27c-15.22-5.69-24.29-22.77-24.29-42.56v-70.87c0-12.4-8.92-22.94-21-24.79l0,0
			c-14.94-2.3-28.39,9.45-28.39,24.79v73.31c-1.07,27.38-21.09,40.12-49.92,40.12h-24.93c0.12-0.27,0.25-0.54,0.37-0.81
			c3.2-8.95,5.61-20.06,5.61-30.9v-81.45c0-12.55-9.04-23.21-21.26-25.07l0,0c-15.09-2.29-28.66,9.57-28.66,25.07v70.61
			c0,29.28-19.49,42.56-49.39,42.56h-62.74V863.42c0-15.89-14.5-27.68-29.77-24.2h0c-11.16,2.54-19.09,12.59-19.09,24.2v263.96
			c0,29.28-20.82,42.56-49.92,42.56h-50.99c-29.9,0-49.12-13.28-49.12-42.56l1.57-114.24h0.01c0.03,0,0.05-0.02,0.05-0.05v-0.05
			c0-2.44,0.02-4.87,0.04-7.31l0-0.31c3.96-313.89,252.14-571.04,562.11-575.81c224.91-3.46,420.96,125.88,516.98,315.63
			c5.8,11.45,19.02,16.79,30.94,12.39l0,0C1456.91,752.46,1463.31,735.99,1456.53,722.51z M884.88,1018.41
			c0-42.83,99.84-64.25,125.74-64.25h4.81c27.76,0,40.85,17.62,41.91,45.54v15.45c0,29.55-13.08,50.69-41.91,50.69H884.08
			C884.08,1049.85,884.88,1042.26,884.88,1018.41z"/>
		<path class="st1" d="M591.18,715.93c2.41-7.57,5.07-15.11,8.05-22.6c37.3-94.04,111.84-161.51,199.42-191.96
			c-117.71,3.91-228.27,71.97-283.81,183.51c13.34,3.56,26.62,8.01,39.75,13.38C567.29,703.45,579.49,709.37,591.18,715.93z"/>
	</g>
</g>
</svg>
