<?xml version="1.0" encoding="utf-8"?>
<!-- Generator: Adobe Illustrator 26.0.2, SVG Export Plug-In . SVG Version: 6.00 Build 0)  -->
<svg version="1.1" id="Layer_1" xmlns="http://www.w3.org/2000/svg" xmlns:xlink="http://www.w3.org/1999/xlink" x="0px" y="0px"
	 viewBox="0 0 300 300" style="enable-background:new 0 0 300 300;" xml:space="preserve">
<style type="text/css">
	.st0{fill:#FE9901;}
	.st1{fill:#FFFFFF;}
</style>
<path class="st0" d="M251.3,278.3H54.2c-18.3,0-33.1-14.8-33.1-33.1V48.1c0-18.3,14.8-33.1,33.1-33.1h197.1
	c18.3,0,33.1,14.8,33.1,33.1v197.1C284.3,263.5,269.5,278.3,251.3,278.3z"/>
<g>
	<path class="st1" d="M170.6,76.6c-3-1.2-6.3-1.7-9.4-2.5h-6.4c-0.3,0.1-0.7,0.2-1,0.3c-18.7,2.2-32.2,19.7-29.6,38.3
		c2.7,19.2,20.7,32.2,39.8,28.9c14.4-2.5,26.8-14.7,28-31C193.1,95.9,184.5,81.9,170.6,76.6z M157.9,132.7
		c-13.6-0.1-24.6-11-24.6-24.6c0-13.6,11.1-24.6,24.7-24.5c13.7,0,24.7,11,24.7,24.6C182.7,121.7,171.6,132.7,157.9,132.7z"/>
	<path class="st1" d="M212.6,205.8c-0.8-2-2.5-3-5.2-3c-33.5,0-67,0-100.5,0c-1,0-2.2,0.4-2.6-0.9c-0.4-1.3,0.8-1.7,1.6-2.3
		c4-3.1,8.1-6.3,12.2-9.3c0.6-0.5,1.6-0.8,2.3-0.8c8-0.1,16,0,24.1,0c18.5,0,37.1,0,55.6,0c6.8,0,11.3-4.5,11.4-11.3
		c0.2-10.2,0.4-20.3,0.6-30.5c0.1-5.3,0.3-10.6,0.3-15.9c0-5.6-4.4-10.5-9.5-10.8c-2.4-0.1-4.4,1.4-4.9,3.7
		c-0.5,2.3,0.8,4.7,3.1,5.3c1.7,0.4,2,1.3,1.9,2.9c-0.3,14.9-0.6,29.7-0.9,44.6c-0.1,2.5-0.2,2.7-2.7,2.7c-25.5,0-51,0-76.5,0h-1.7
		c-4.9-21.4-9.9-42.6-14.8-64c0.7,0.1,1.3,0.1,1.8,0.2c2,0.3,3.9,0.6,5.9,0.8c2.7,0.2,4.9-1.6,5.1-4.2c0.2-2.5-1.4-4.7-4-5.1
		c-3.3-0.5-6.6-1.1-9.8-1.5c-1-0.1-1.5-0.5-1.7-1.5c-1.2-4.9-2.5-9.8-3.7-14.7c-0.8-3-2.3-4.3-5.5-4.3c-5.7,0-11.3,0-17,0
		c-3.1,0-5.3,2-5.3,4.7c0,2.7,2.2,4.7,5.3,4.7c4.2,0,8.4,0,12.6,0c1.1,0,1.6,0.3,1.8,1.4c6.7,28.3,13.3,56.6,20.1,84.9
		c0.2,1,0,1.5-0.8,2.1c-3.9,2.9-7.8,6-11.7,9c-4.1,3.1-5.5,7.6-3.9,12.2c1.6,4.7,5.4,7.4,10.4,7.4c3.4,0,6.7,0,10.1,0h1.7
		c-1.7,6.7-0.1,12.2,5.4,16.2c4.6,3.3,11,3.5,15.7,0.3c5.9-4,7.6-9.6,5.9-16.4H170c-1.7,6.6-0.2,12.3,5.6,16.2
		c4.9,3.3,10.1,3.5,15.2,0.4c6.2-3.8,8-9.6,6.3-16.6c0.5,0,1-0.1,1.4-0.1c3.2,0,6.3,0,9.5,0C211.5,212.1,213.8,208.9,212.6,205.8z
		 M131.1,221.5c-2.6,0-4.7-2.1-4.7-4.7c0-2.6,2.2-4.7,4.9-4.7c2.6,0,4.7,2.1,4.7,4.7C135.9,219.4,133.8,221.5,131.1,221.5z
		 M183.5,221.5c-2.7,0-4.9-2.1-4.8-4.7c0-2.6,2.2-4.7,4.9-4.6c2.6,0,4.7,2.1,4.7,4.7C188.2,219.5,186.2,221.5,183.5,221.5z"/>
	<path class="st1" d="M172.8,103c-5.2,5.5-10.4,11.1-15.6,16.6c-2.4,2.6-5.8,2.4-8.1-0.3c-2.2-2.6-4.4-5.2-6.6-7.8
		c-2-2.5-2-5.3,0.2-7.1c2.1-1.8,5-1.4,7,1c1.2,1.4,2.4,2.8,3.6,4.2c0,0,0.1,0.1,0.2,0.2c0.9-0.9,1.9-1.8,2.8-2.8
		c3.3-3.5,6.6-7,9.9-10.5c2.1-2.2,5-2.3,6.9-0.5C175,98,174.9,100.9,172.8,103z"/>
</g>
</svg>
