<?xml version="1.0" encoding="utf-8"?>
<!-- Generator: Adobe Illustrator 26.0.2, SVG Export Plug-In . SVG Version: 6.00 Build 0)  -->
<svg version="1.1" id="Layer_1" xmlns="http://www.w3.org/2000/svg" xmlns:xlink="http://www.w3.org/1999/xlink" x="0px" y="0px"
	 viewBox="0 0 300 300" style="enable-background:new 0 0 300 300;" xml:space="preserve">
<style type="text/css">
	.st0{fill:#240D29;}
	.st1{fill:#FFFFFF;}
</style>
<path class="st0" d="M251.3,278.3H54.2c-18.3,0-33.1-14.8-33.1-33.1V48.1c0-18.3,14.8-33.1,33.1-33.1h197.1
	c18.3,0,33.1,14.8,33.1,33.1v197.1C284.3,263.5,269.5,278.3,251.3,278.3z"/>
<g>
	<path class="st1" d="M230.5,142.2c-2.4-17.1-9.5-32.1-21.8-44.3c-19.6-19.4-43.2-26.9-70.4-22.1C120.1,79,105,88,93.1,102.2
		c-14.9,17.7-20.8,38.2-17.8,61.1c2,15.8,8.6,29.7,19.2,41.5c12.1,13.5,27.1,21.9,44.9,25c2.8,0.5,5.7,0.8,8.6,1.2h9.8
		c2.9-0.4,5.9-0.7,8.8-1.2c17.9-3.2,32.9-11.7,45-25.2c10.5-11.8,16.8-25.6,19.1-41.3c0.3-1.9,0.5-3.8,0.7-5.7v-9.8
		C231,146,230.8,144.1,230.5,142.2z M152.8,225c-39.8,0-72.2-32.5-72.2-72.3c0-39.8,32.5-72.2,72.3-72.2c39.8,0,72.2,32.5,72.2,72.3
		C225.1,192.5,192.6,225,152.8,225z"/>
	<path class="st1" d="M163.1,213.1c-31.6,5.1-61.2-14-69.5-44.9c-2.4-8.8-2.6-17.7-1-26.7c0.2-1.2,0.5-2.6,1.9-2.9
		c0.9-0.2,2.1-0.1,3,0.3c1.1,0.5,1.4,1.7,1.3,3c-0.4,4-1,8-1,12c0.3,26,19.8,48.7,45.4,53.1c29.8,5.1,57.7-14,63.7-43.6
		c6.1-30-14.2-59.8-44.5-64.9c-20.5-3.4-37.8,3-51.6,18.6c-0.4,0.4-0.7,0.9-1.1,1.3c-1.2,1.3-3,1.5-4.3,0.4c-1.3-1.1-1.6-3-0.4-4.4
		c2.3-2.6,4.6-5.3,7.3-7.6c11.5-10.2,25.1-15.1,38.3-15.4c32.1,0.1,57.4,21.5,62.5,51.1C218.9,175.7,196.1,207.8,163.1,213.1z"/>
	<path class="st1" d="M145.6,114.1c-1.9,0-3.1,1.3-3.1,3.5c0,4.3,0,8.7,0,13v1.7h-6.1c0-5,0-9.8,0-14.6c0-2.3-1.1-3.6-3-3.6
		c-1.9,0-3.1,1.3-3.1,3.6c0,3.9,0,7.9,0,11.8v2.9h-6.1c0-5.1,0-10,0-14.9c0-2.2-1.2-3.4-3-3.4c-1.8,0-3,1.3-3.1,3.5
		c0,7.1-0.1,14.2,0,21.3c0,4.3,1.7,8,5,11c0.8,0.8,1.2,1.5,1.2,2.6c0,10.8,0,21.5,0,32.3c0,4.2,2.1,7.5,5.7,9
		c6,2.5,12.6-1.8,12.7-8.4c0.1-11,0-21.9,0-32.9c0-1,0.2-1.8,1.1-2.5c3.4-3,5.1-6.8,5.1-11.4c0-7,0-14,0-21
		C148.6,115.5,147.5,114.1,145.6,114.1z M136.3,184.7c0,0.8-0.2,1.9-0.7,2.4c-0.7,0.6-1.9,1.2-2.8,1.1c-0.9-0.1-1.7-1.1-2.3-1.9
		c-0.3-0.4-0.3-1.1-0.3-1.6c0-9.9,0-19.9,0-29.8c0-0.4,0-0.7,0.1-1h6c0,0.3,0,0.7,0,1C136.4,164.8,136.4,174.7,136.3,184.7z
		 M133.7,147.8c-5.1,0.3-9.6-4-9.5-9.1h18.1C142.8,143.2,138.7,147.5,133.7,147.8z"/>
	<path class="st1" d="M178.6,113.2c-4.1-2.8-8.8-2.9-12.9,0c-1.6,1.1-3.1,2.6-4.3,4.1c-3.6,4.6-5.6,9.8-6.1,15.6
		c-0.5,6.3,1.4,11.5,6.8,15.3c0.4,0.3,0.7,1.1,0.7,1.6c0.1,6,0,11.9,0,17.9c0,5.9,0,11.8,0,17.8c0,5.1,4.2,9.1,9.2,9
		c5.1,0,9.1-4.1,9.1-9.4c0-11.7,0-23.4,0-35c0-1,0.3-1.6,1.2-2.2c3-2.1,5-4.9,5.9-8.5C190.6,130.9,185.8,118.1,178.6,113.2z
		 M175.2,184.3c0,0.5,0,0.9-0.1,1.4c-0.3,1.6-1.6,2.6-3.1,2.5c-1.6-0.1-2.8-1.2-2.9-2.8c0-0.6,0-1.1,0-1.7v-33h6.1V184.3z
		 M174.1,144.6c-5.7,0.9-10.7-1.7-12.1-6.4c-0.4-1.2-0.5-2.5-0.6-3.4c0.4-5.8,2.1-10.7,5.7-14.8c3.4-3.9,6.8-3.9,10.2,0
		c3.4,4,5.2,8.6,5.6,13.8C183.2,139.9,180,143.6,174.1,144.6z"/>
	<path class="st1" d="M103.2,128.1c0,1.7-1.5,3.1-3.1,3.1c-1.6,0-3-1.4-3-3.1c0-1.7,1.3-3,3-3C101.8,125.1,103.2,126.5,103.2,128.1z
		"/>
</g>
</svg>
