<?xml version="1.0" encoding="utf-8"?>
<!-- Generator: Adobe Illustrator 26.0.2, SVG Export Plug-In . SVG Version: 6.00 Build 0)  -->
<svg version="1.1" id="Layer_1" xmlns="http://www.w3.org/2000/svg" xmlns:xlink="http://www.w3.org/1999/xlink" x="0px" y="0px"
	 viewBox="0 0 300 300" style="enable-background:new 0 0 300 300;" xml:space="preserve">
<style type="text/css">
	.st0{fill:#E6254B;}
	.st1{display:none;}
	.st2{display:inline;fill:#FFFFFF;}
	.st3{fill:#FFFFFF;}
</style>
<path class="st0" d="M251.3,278.3H54.2c-18.3,0-33.1-14.8-33.1-33.1V48.1c0-18.3,14.8-33.1,33.1-33.1h197.1
	c18.3,0,33.1,14.8,33.1,33.1v197.1C284.3,263.5,269.5,278.3,251.3,278.3z"/>
<g class="st1">
	<path class="st2" d="M177.6,84c-2.8-1.1-5.8-1.5-8.7-2.3H163c-0.3,0.1-0.6,0.2-0.9,0.3c-17.2,2.1-29.7,18.2-27.3,35.4
		c2.5,17.7,19.1,29.7,36.8,26.6c13.2-2.3,24.7-13.6,25.8-28.6C198.4,101.8,190.4,89,177.6,84z M165.9,135.8
		c-12.6,0-22.7-10.2-22.7-22.7c0-12.5,10.2-22.7,22.8-22.6c12.6,0,22.8,10.1,22.8,22.7C188.8,125.7,178.6,135.8,165.9,135.8z"/>
	<path class="st2" d="M216.4,203.3c-0.7-1.8-2.3-2.8-4.8-2.8c-30.9,0-61.8,0-92.7,0c-0.9,0-2,0.4-2.4-0.9c-0.4-1.2,0.8-1.6,1.4-2.1
		c3.7-2.9,7.4-5.8,11.2-8.6c0.6-0.4,1.4-0.7,2.2-0.7c7.4-0.1,14.8,0,22.2,0c17.1,0,34.2,0,51.3,0c6.3,0,10.4-4.2,10.5-10.4
		c0.2-9.4,0.4-18.8,0.5-28.1c0.1-4.9,0.2-9.8,0.3-14.7c0-5.2-4-9.7-8.8-9.9c-2.2-0.1-4.1,1.3-4.5,3.4c-0.4,2.1,0.7,4.3,2.8,4.9
		c1.6,0.4,1.8,1.2,1.8,2.7c-0.3,13.7-0.6,27.4-0.8,41.1c0,2.3-0.2,2.5-2.5,2.5c-23.5,0-47,0-70.5,0H132
		c-4.6-19.7-9.1-39.3-13.7-59.1c0.7,0.1,1.2,0.1,1.7,0.2c1.8,0.2,3.6,0.6,5.5,0.7c2.5,0.2,4.5-1.5,4.7-3.8c0.2-2.3-1.3-4.3-3.7-4.7
		c-3-0.5-6-1-9.1-1.4c-0.9-0.1-1.4-0.5-1.6-1.4c-1.1-4.5-2.3-9-3.4-13.5c-0.7-2.8-2.2-4-5-4c-5.2,0-10.5,0-15.7,0
		c-2.9,0-4.9,1.8-4.9,4.4c0,2.5,2,4.3,4.9,4.3c3.9,0,7.7,0,11.6,0c1,0,1.4,0.2,1.7,1.3c6.1,26.1,12.3,52.2,18.5,78.3
		c0.2,0.9,0,1.4-0.8,2c-3.6,2.7-7.2,5.5-10.8,8.3c-3.8,2.9-5,7-3.6,11.3s5,6.8,9.6,6.9c3.1,0,6.2,0,9.3,0h1.5
		c-1.6,6.2-0.1,11.2,5,14.9c4.2,3.1,10.1,3.2,14.5,0.3c5.4-3.7,7-8.8,5.4-15.1h23.3c-1.5,6.1-0.1,11.3,5.2,14.9
		c4.5,3,9.4,3.2,14,0.4c5.8-3.5,7.4-8.8,5.8-15.3c0.5,0,0.9-0.1,1.3-0.1c2.9,0,5.8,0,8.8,0C215.4,209.1,217.5,206.1,216.4,203.3z
		 M141.2,217.7c-2.4,0-4.3-2-4.3-4.3c0-2.4,2-4.3,4.5-4.3c2.4,0,4.3,2,4.3,4.3C145.7,215.8,143.6,217.8,141.2,217.7z M189.6,217.7
		c-2.5,0-4.5-2-4.5-4.3c0-2.4,2-4.3,4.5-4.3c2.4,0,4.3,1.9,4.3,4.3C193.9,215.8,192,217.7,189.6,217.7z"/>
	<path class="st2" d="M179.7,108.4c-4.8,5.1-9.6,10.2-14.4,15.3c-2.2,2.4-5.3,2.2-7.5-0.2c-2-2.4-4.1-4.8-6.1-7.2
		c-1.9-2.3-1.8-4.9,0.2-6.5c1.9-1.6,4.6-1.2,6.5,0.9c1.1,1.3,2.2,2.6,3.3,3.9c0,0,0.1,0.1,0.2,0.1c0.8-0.8,1.7-1.7,2.5-2.6
		c3-3.2,6-6.5,9.1-9.7c1.9-2,4.6-2.2,6.4-0.4C181.7,103.8,181.6,106.4,179.7,108.4z"/>
</g>
<g>
	<path class="st3" d="M200.5,200.6c-1.5-1.8-3.3-3.4-5.2-4.7c-4.9-3.4-10.4-5.4-16.1-6.9c-2.6-0.7-5.2-1.3-8-1.9
		c0.3-0.4,0.6-0.8,0.8-1.1c4.9-6.2,9.8-12.5,14.7-18.7c4.1-5.2,7.6-10.7,10.2-16.8c5-11.6,7-23.7,3.9-36.1
		c-5.3-21.3-19.4-33.8-40.4-39.1c-2.5-0.6-5-0.8-7.5-1.3h-8c-0.3,0.1-0.6,0.2-0.9,0.2c-5.1,0.4-10.1,1.6-14.9,3.5
		C110.8,85,95.6,102.3,95.7,126c0,13.5,4.2,25.7,12,36.5c5.7,8,12,15.5,18,23.3c0.3,0.4,0.6,0.8,1,1.4c-0.6,0.1-1,0.3-1.4,0.3
		c-6.1,1.2-12,2.9-17.6,5.5c-3.9,1.9-7.6,4.1-10.4,7.6c-3.8,4.8-3.9,10.5,0.2,15.1c2,2.2,4.5,4.2,7.1,5.8c8.2,4.9,17.3,6.9,26.6,8.3
		c11.3,1.6,22.6,1.7,33.9,0.3c9.2-1.1,18.1-3.2,26.4-7.3c3.5-1.7,6.6-3.9,9.1-6.9C204.4,211,204.5,205.4,200.5,200.6z M113,162.8
		c-6.8-8.8-11.2-18.6-12.7-29.6c-2.9-21.4,7.8-41,27.5-50.2c21.9-10.2,48.4-3.1,62,16.9c7.2,10.6,9.3,22.4,7.3,35
		c-1.7,10.8-6.4,20.4-13.1,29c-11.4,14.6-22.9,29.2-34.4,43.7c-0.2,0.3-0.5,0.5-0.8,1c-4.1-5.2-8.1-10.3-12.1-15.4
		C128.8,182.9,120.8,172.9,113,162.8z M196.7,213.6c-2.6,3-6,4.8-9.6,6.4c-8.2,3.6-16.8,5.3-25.6,6.1c-4.2,0.4-8.5,0.5-10.9,0.7
		c-13.3-0.2-24.8-1.4-35.8-5.2c-4.2-1.5-8.2-3.2-11.6-6c-5.9-4.8-5.9-9.9-0.1-14.6c5.1-4.1,11.1-6.2,17.3-7.9
		c2.6-0.7,5.3-1.1,7.9-1.8c1.2-0.3,1.8,0,2.6,1c5.3,6.8,10.6,13.5,15.9,20.2c1.6,2,2.9,2,4.5,0c5.3-6.7,10.6-13.5,15.9-20.2
		c0.7-0.9,1.4-1.2,2.6-1c7,1.3,13.9,3,20.2,6.4c2.4,1.3,4.8,3,6.8,4.9C200.1,206.1,200,210,196.7,213.6z"/>
	<path class="st3" d="M148.8,92.4c-20.3,0.2-36.6,16.6-36.5,36.8c0.2,20.2,16.7,36.7,36.7,36.5c20.4-0.2,36.8-16.7,36.6-36.9
		C185.3,108.5,168.9,92.2,148.8,92.4z M148.8,161.4c-18-0.2-32.5-14.8-32.3-32.5c0.3-18.2,14.7-32.4,32.6-32.2
		c18,0.2,32.3,14.8,32,32.8C181,147.1,166.3,161.6,148.8,161.4z"/>
	<path class="st3" d="M169.3,124c0-2.9-1.8-4.5-4.7-4.5c-1.5,0-3,0-4.7,0c0-1.8,0-3.3,0-4.9c0-3.8-2.3-6.1-6.1-6.2
		c-5.8,0-11.5,0-17.3,0c-4.7,0-8,3.2-8.1,8c-0.1,9.5,0,18.9,0,28.4c0,3.1,1.7,4.8,4.8,4.8c10.5,0,21,0,31.4,0c2.9,0,4.7-1.6,4.7-4.5
		C169.4,138,169.4,131,169.3,124z M136.4,112.7c4,0,8,0,11.9,0c1.8,0,3.7,0,5.5,0c1.3,0,1.9,0.5,1.9,1.9c0,1.6,0,3.1,0,4.9
		c-6.7,0-13.2,0-19.6,0c-1.9,0-3.2-1.6-3.2-3.4C132.9,114.1,134.3,112.8,136.4,112.7z M165.1,145.1h-32.2v-21.5
		c4.7,0,9.3,0.1,13.9,0.1c6,0,12,0,18.2,0v4.4c-5.5,1-7.6,2.8-7.6,6.4c0,3.6,2.1,5.4,7.6,6.2c0,0.3,0.1,0.6,0.1,0.8
		C165.1,142.8,165.1,143.9,165.1,145.1z M165,132.8v3.8c-1-0.3-2.1-0.4-2.8-0.9c-0.4-0.3-0.5-1.5-0.2-2
		C162.5,132.4,163.8,132.6,165,132.8z"/>
	<path class="st3" d="M143.1,142.5c-2,0.1-4.1,0.2-6.1,0c-1.1-0.1-1.8-1-1.7-2.2c0.1-1.2,0.8-1.9,2-1.9c0.4,0,0.8,0,1.2,0
		c0.5,0,1,0,1.5,0c0.3,0,0.6,0,0.9,0c0.6,0,1.3,0,1.9,0c1.2,0.1,1.9,0.8,2,1.9C144.9,141.5,144.3,142.5,143.1,142.5z"/>
</g>
</svg>
