<?xml version="1.0" encoding="utf-8"?>
<!-- Generator: Adobe Illustrator 26.0.2, SVG Export Plug-In . SVG Version: 6.00 Build 0)  -->
<svg version="1.1" id="Layer_1" xmlns="http://www.w3.org/2000/svg" xmlns:xlink="http://www.w3.org/1999/xlink" x="0px" y="0px"
	 viewBox="0 0 300 300" style="enable-background:new 0 0 300 300;" xml:space="preserve">
<style type="text/css">
	.st0{fill:#C60E55;}
	.st1{display:none;}
	.st2{display:inline;fill:#FFFFFF;}
	.st3{fill:#FFFFFF;}
</style>
<path class="st0" d="M251.3,278.3H54.2c-18.3,0-33.1-14.8-33.1-33.1V48.1c0-18.3,14.8-33.1,33.1-33.1h197.1
	c18.3,0,33.1,14.8,33.1,33.1v197.1C284.3,263.5,269.5,278.3,251.3,278.3z"/>
<g class="st1">
	<path class="st2" d="M177.6,84c-2.8-1.1-5.8-1.5-8.7-2.3H163c-0.3,0.1-0.6,0.2-0.9,0.3c-17.2,2.1-29.7,18.2-27.3,35.4
		c2.5,17.7,19.1,29.7,36.8,26.6c13.2-2.3,24.7-13.6,25.8-28.6C198.4,101.8,190.4,89,177.6,84z M165.9,135.8
		c-12.6,0-22.7-10.2-22.7-22.7c0-12.5,10.2-22.7,22.8-22.6c12.6,0,22.8,10.1,22.8,22.7C188.8,125.7,178.6,135.8,165.9,135.8z"/>
	<path class="st2" d="M216.4,203.3c-0.7-1.8-2.3-2.8-4.8-2.8c-30.9,0-61.8,0-92.7,0c-0.9,0-2,0.4-2.4-0.9c-0.4-1.2,0.8-1.6,1.4-2.1
		c3.7-2.9,7.4-5.8,11.2-8.6c0.6-0.4,1.4-0.7,2.2-0.7c7.4-0.1,14.8,0,22.2,0c17.1,0,34.2,0,51.3,0c6.3,0,10.4-4.2,10.5-10.4
		c0.2-9.4,0.4-18.8,0.5-28.1c0.1-4.9,0.2-9.8,0.3-14.7c0-5.2-4-9.7-8.8-9.9c-2.2-0.1-4.1,1.3-4.5,3.4c-0.4,2.1,0.7,4.3,2.8,4.9
		c1.6,0.4,1.8,1.2,1.8,2.7c-0.3,13.7-0.6,27.4-0.8,41.1c0,2.3-0.2,2.5-2.5,2.5c-23.5,0-47,0-70.5,0H132
		c-4.6-19.7-9.1-39.3-13.7-59.1c0.7,0.1,1.2,0.1,1.7,0.2c1.8,0.2,3.6,0.6,5.5,0.7c2.5,0.2,4.5-1.5,4.7-3.8c0.2-2.3-1.3-4.3-3.7-4.7
		c-3-0.5-6-1-9.1-1.4c-0.9-0.1-1.4-0.5-1.6-1.4c-1.1-4.5-2.3-9-3.4-13.5c-0.7-2.8-2.2-4-5-4c-5.2,0-10.5,0-15.7,0
		c-2.9,0-4.9,1.8-4.9,4.4c0,2.5,2,4.3,4.9,4.3c3.9,0,7.7,0,11.6,0c1,0,1.4,0.2,1.7,1.3c6.1,26.1,12.3,52.2,18.5,78.3
		c0.2,0.9,0,1.4-0.8,2c-3.6,2.7-7.2,5.5-10.8,8.3c-3.8,2.9-5,7-3.6,11.3s5,6.8,9.6,6.9c3.1,0,6.2,0,9.3,0h1.5
		c-1.6,6.2-0.1,11.2,5,14.9c4.2,3.1,10.1,3.2,14.5,0.3c5.4-3.7,7-8.8,5.4-15.1h23.3c-1.5,6.1-0.1,11.3,5.2,14.9
		c4.5,3,9.4,3.2,14,0.4c5.8-3.5,7.4-8.8,5.8-15.3c0.5,0,0.9-0.1,1.3-0.1c2.9,0,5.8,0,8.8,0C215.4,209.1,217.5,206.1,216.4,203.3z
		 M141.2,217.7c-2.4,0-4.3-2-4.3-4.3c0-2.4,2-4.3,4.5-4.3c2.4,0,4.3,2,4.3,4.3C145.7,215.8,143.6,217.8,141.2,217.7z M189.6,217.7
		c-2.5,0-4.5-2-4.5-4.3c0-2.4,2-4.3,4.5-4.3c2.4,0,4.3,1.9,4.3,4.3C193.9,215.8,192,217.7,189.6,217.7z"/>
	<path class="st2" d="M179.7,108.4c-4.8,5.1-9.6,10.2-14.4,15.3c-2.2,2.4-5.3,2.2-7.5-0.2c-2-2.4-4.1-4.8-6.1-7.2
		c-1.9-2.3-1.8-4.9,0.2-6.5c1.9-1.6,4.6-1.2,6.5,0.9c1.1,1.3,2.2,2.6,3.3,3.9c0,0,0.1,0.1,0.2,0.1c0.8-0.8,1.7-1.7,2.5-2.6
		c3-3.2,6-6.5,9.1-9.7c1.9-2,4.6-2.2,6.4-0.4C181.7,103.8,181.6,106.4,179.7,108.4z"/>
</g>
<g>
	<path class="st3" d="M239.5,158c-0.6-1.3-1.6-1.7-2.9-1.7c-3.5,0-7,0-10.5,0v-5.5c1.8,0,3.5,0,5.2,0c1.8,0,2.9-1.2,2.9-2.8
		c0-1.6-1.2-2.7-2.9-2.7c-4.5,0-9,0-13.4,0c-1.8,0-2.9,1.2-2.9,2.8c0,1.6,1.2,2.7,2.9,2.7c0.8,0,1.7,0,2.5,0v5.5c-1.7,0-3.3,0-4.9,0
		c-2,0-3.3,1.1-3.3,2.7c0,1.7,1.2,2.8,3.2,2.8c1.6,0,3.2,0,5,0c-0.6,1.9-1.7,2.7-3.4,2.7c-9.7,0-19.4,0-29.1,0c-2,0-3.3-1.3-3.3-3.2
		c0-7,0-14,0-21c0-1.7,1-3,2.6-3.2c1.8-0.2,3.7-0.1,5.7-0.1c0,2.7,0,5.1,0,7.6c0,2.4,1,3.4,3.3,3.4c4.1,0,8.3,0,12.4,0
		c2.6,0,3.5-0.9,3.6-3.5c0-2.4,0-4.9,0-7.5c1.5,0,2.9,0,4.3,0c1.5,0,2.6,0.4,3.6,1.6c1.1,1.4,2.7,1.5,3.9,0.5c1.2-1,1.3-2.6,0.3-4
		c-1.8-2.5-4.3-3.6-7.4-3.6c-9,0-17.9,0-26.9,0c-3,0-5.9,0.2-8.3,2.6c-1.7-4.8-3.7-9.2-6.8-13c-3.2-3.9-7.1-6.8-12.4-8.2
		c0.6-0.4,0.9-0.6,1.2-0.8c7.3-6.9,9.3-17,5-25.8C164.3,77.3,155,72.4,145,74c-10.1,1.6-18.1,10.8-18.2,21c0,1,0.5,2.5,1.2,2.9
		c1.4,0.7,1.4,1.6,1.1,2.6c-0.4,1.5-0.7,3.1-1.7,4.3c-2.6,3.1-1.1,6.4,1.1,8.3c0.5,0.4,1.1,0.8,1.2,1.3c1.1,4.3,3.8,6.9,8.5,7.6
		c-1.2,1.7-2.4,3.2-3.4,4.7c-2.9,4.2-6.8,5.4-11.7,4.5c-4-0.7-7.5,0.2-10.3,3.3c-0.2,0.2-0.4,0.4-0.7,0.5c-2.4-5.5-6.4-8.7-12.4-9.1
		c-2.1-0.2-3.3,0.9-3.3,3c0,7.2,0,14.3,0,21.5c0,2,1.2,3.1,3.2,2.9c1.5-0.1,3-0.5,4.7-0.8c-2.8,6.6-5.7,13-8.3,19.6
		c-0.9,2.2-1.8,4-4.7,3.4c-0.3-0.1-0.7,0.1-1,0.2c-10.1,1.5-17.8,9.7-18.7,19.8c-0.9,10,5.2,19.3,14.7,22.7
		c9.6,3.4,20.2-0.1,25.7-8.7c1.7-2.8,2.7-6,4.1-9.2h41.1c2.2,12.7,12.2,18.4,20,18.9c4.9,0.3,9.5-0.7,13.6-3.3
		c5.7-3.7,9-9,10.1-15.6c0.3-0.1,0.4-0.1,0.5-0.1c2.3,0,4.6,0,6.9,0c3,0,3.9-0.9,3.8-3.9c-0.3-9.5-2.5-18.4-8.4-26.4h1.8
		c3.9,0,7.7,0,11.5,0c4.3,0,7.6-2.7,8.7-7c0.1-0.4,0.2-0.8,0.3-1.3h5.2c1.8,0,3.6,0,5.3,0C239,161.8,240.3,159.9,239.5,158z
		 M198.5,137.1h8.1v5.3h-8.1V137.1z M149,79.2c8.9,0.1,16.4,7.7,16.4,16.6c0,8-6.7,15.9-13.8,16c0-2.4,0-4.8,0-7.2
		c0-6.7-4.9-11.6-11.6-11.6c-2.4,0-4.8,0-7.2,0C132.9,85.8,140.9,79.1,149,79.2z M135.4,113.7c-0.4-2.3-1.3-4.1-3.2-4.9
		c1.2-3.6,2.2-6.8,3.3-10.2c1.7,0,3.9-0.2,6,0.1c2.7,0.4,4.5,2.8,4.5,5.5c0.1,3.2,0,6.4,0,9.6c0,0.9-0.3,1.3-1.2,1.5
		c-2,0.3-3.9,1-5.8,1.1C137.1,116.6,135.8,115.6,135.4,113.7z M141.8,126.7c0.6-0.8,1.2-1.7,1.8-2.5c6.2-8.5,18.7-8.2,25.2-1.6
		c4.2,4.3,6.5,9.5,8.2,15.1c1.2,4.2,2.3,8.4,2.1,13c-0.6,0-1.1,0.1-1.5,0.1c-6.6,0-13.3,0-20,0c-1.1,0-1.6-0.3-2-1.4
		c-1.3-3.1-2.9-6.2-4.6-9.5c0.6-0.9,1.6-2.2,2.6-3.7c1.3-2,1.1-3.7-0.4-4.6c-1.5-0.9-2.9-0.3-4.2,1.7c-3.3,5.5-8.1,9.2-14.2,11.1
		c-0.4,0.1-0.8,0.2-1.2,0.3c-0.2,0-0.3,0-0.3,0c-0.7-2.8-1.4-5.5-2.1-8.3C136,134.8,139,130.8,141.8,126.7z M115.5,140.9
		c0.7-2.3,2-3.9,4.5-4.2c2.8-0.3,5,0.9,6.5,3.3c0.2,0.3,0.4,0.7,0.5,1.1c1.3,3.5,0.5,4.6-3.2,4.1c-3.1-0.4-6-1.1-8.9-2.7
		C115.2,141.8,115.4,141.3,115.5,140.9z M102,147.4v-15.2c3.3,1,5.5,4.1,5.5,7.5C107.5,143.2,105.4,146.2,102,147.4z M99.5,213.1
		c-6.7,2.4-12.8,1-17.7-4.1s-5.9-11.3-3.2-17.8c2.5-6.2,8.7-10.1,15.3-10c0.6,0,1.4,0.3,1.7,0.8c1.6,2.1,3.1,4.3,4.6,6.4
		c-2.9-1.4-5.8-2.2-9-1.4c-5.1,1.2-8.6,5.6-8.5,10.9c0,5.2,3.7,9.5,8.8,10.6c5,1,10.2-1.5,12.1-6.2c0.6-1.5,1.4-1.9,2.9-1.8
		c1.1,0.1,2.2,0,3.5,0C108.7,206.6,105.3,211,99.5,213.1z M94,200.4c1.4,0,2.7,0,4.1,0c-0.8,1.9-3,3-5.2,2.7
		c-2.5-0.4-4.4-2.4-4.7-4.8c-0.3-2.5,1.2-4.8,3.5-5.7c2.4-0.9,4.9-0.1,6.6,2.4c-1.6,0-3,0-4.3,0c-1.9,0-3.1,1.2-3,2.8
		C91,199.3,92.2,200.3,94,200.4z M121,194.9c-2.9,0-5.7,0-8.4,0c-0.5,0-1.2-0.4-1.5-0.8c-3.6-5-7.2-10-10.8-15.1
		c-0.3-0.5-0.4-1.3-0.2-1.8c2-4.8,4.1-9.6,6.2-14.5c1.9-4.5,3.8-8.9,5.8-13.4c0.2-0.3,0.3-0.7,0.4-1c0,0,0,0,0,0c0,0,0,0,0,0
		c0,0,0,0,0,0c4.6,1,9,2.1,13.5,3.1c-1.4,6.2-3,12.8-4.5,19.3c-0.8,3.6-1.7,7.2-2.5,10.9C117.8,186.3,118.1,188.2,121,194.9z
		 M127,192.7c-1.9-1.1-2.5-3-2.8-4.8c-0.2-1.3-0.2-2.8,0.1-4.1c2.4-10.5,4.8-21,7.2-31.5c0.3-1.2,0.8-1.7,2.1-2
		c4.9-0.9,9.2-3,13.4-6.2c1.3,2.3,2.5,4.6,3.8,6.9c-0.8,0.3-1.1,0.4-1.5,0.5c-8.3,1.9-14.1,9.1-14.1,17.6v15
		C130,186.1,128.3,187.9,127,192.7z M145.4,194.5c-4.3,0.4-8.6,0.1-13.1,0.1c0.2-3,2.1-5.1,4.8-5.2c4.5-0.1,9,0,13.9,0
		C150,192.2,148.2,194.2,145.4,194.5z M151.6,183.9h-11v-2.6c0-3.7,0-7.3,0-11c0-8.1,4.8-13.2,12.9-13.9c0.5,0,1,0,1.5,0h24
		c0.1,2.8,0.2,5.4,0.4,8.2c-0.3,0-0.8,0.1-1.3,0.1c-4.4,0-8.7,0-13.1,0c-7.6,0-13.4,5.8-13.5,13.4
		C151.6,179.8,151.6,181.7,151.6,183.9z M179.3,214.2c-8.1,0.1-15.9-6.5-16.3-13.8c1.5,0,3.1-0.1,4.6,0c0.4,0,0.9,0.5,1.1,1
		c2,4.6,5.5,7.1,10.4,7.1c4.9,0,8.3-2.6,10.3-7.1c0.2-0.4,0.7-0.9,1.1-1c1.5-0.1,3.1,0,4.6,0C194.9,207.5,187.3,214.1,179.3,214.2z
		 M174.5,200.5h9.2c-0.8,1.6-2.2,2.3-3.8,2.5C177.7,203.3,176,202.5,174.5,200.5z M206.7,194.8h-52.3c2.4-3.3,2.8-6.9,2.7-10.6
		c-0.1-2.1,0-4.2,0-6.4c0.1-4.2,3.5-7.6,7.7-7.7c8.7,0,17.4-0.1,26.1,0c4.3,0,7.8,2,10.1,5.6C204.6,181.5,206.2,187.9,206.7,194.8z"
		/>
	<path class="st3" d="M112.4,148.2C112.5,148.2,112.5,148.2,112.4,148.2C112.5,148.2,112.5,148.2,112.4,148.2
		C112.5,148.2,112.5,148.2,112.4,148.2z"/>
</g>
</svg>
